G04 #@! TF.GenerationSoftware,KiCad,Pcbnew,7.0.1*
G04 #@! TF.CreationDate,2023-06-27T15:11:53+02:00*
G04 #@! TF.ProjectId,K_PSU_dual_filter,4b5f5053-555f-4647-9561-6c5f66696c74,rev?*
G04 #@! TF.SameCoordinates,Original*
G04 #@! TF.FileFunction,Copper,L2,Bot*
G04 #@! TF.FilePolarity,Positive*
%FSLAX46Y46*%
G04 Gerber Fmt 4.6, Leading zero omitted, Abs format (unit mm)*
G04 Created by KiCad (PCBNEW 7.0.1) date 2023-06-27 15:11:53*
%MOMM*%
%LPD*%
G01*
G04 APERTURE LIST*
G04 Aperture macros list*
%AMRoundRect*
0 Rectangle with rounded corners*
0 $1 Rounding radius*
0 $2 $3 $4 $5 $6 $7 $8 $9 X,Y pos of 4 corners*
0 Add a 4 corners polygon primitive as box body*
4,1,4,$2,$3,$4,$5,$6,$7,$8,$9,$2,$3,0*
0 Add four circle primitives for the rounded corners*
1,1,$1+$1,$2,$3*
1,1,$1+$1,$4,$5*
1,1,$1+$1,$6,$7*
1,1,$1+$1,$8,$9*
0 Add four rect primitives between the rounded corners*
20,1,$1+$1,$2,$3,$4,$5,0*
20,1,$1+$1,$4,$5,$6,$7,0*
20,1,$1+$1,$6,$7,$8,$9,0*
20,1,$1+$1,$8,$9,$2,$3,0*%
G04 Aperture macros list end*
G04 #@! TA.AperFunction,ComponentPad*
%ADD10R,2.000000X2.000000*%
G04 #@! TD*
G04 #@! TA.AperFunction,ComponentPad*
%ADD11C,2.000000*%
G04 #@! TD*
G04 #@! TA.AperFunction,ComponentPad*
%ADD12C,6.400000*%
G04 #@! TD*
G04 #@! TA.AperFunction,ComponentPad*
%ADD13C,3.000000*%
G04 #@! TD*
G04 #@! TA.AperFunction,ComponentPad*
%ADD14R,1.950000X1.950000*%
G04 #@! TD*
G04 #@! TA.AperFunction,ComponentPad*
%ADD15C,1.950000*%
G04 #@! TD*
G04 #@! TA.AperFunction,SMDPad,CuDef*
%ADD16RoundRect,0.250000X0.650000X-0.412500X0.650000X0.412500X-0.650000X0.412500X-0.650000X-0.412500X0*%
G04 #@! TD*
G04 #@! TA.AperFunction,Conductor*
%ADD17C,1.500000*%
G04 #@! TD*
G04 #@! TA.AperFunction,Conductor*
%ADD18C,4.000000*%
G04 #@! TD*
G04 APERTURE END LIST*
D10*
X154000000Y-50367677D03*
D11*
X154000000Y-45367677D03*
D12*
X109000000Y-131000000D03*
D10*
X154450000Y-71367677D03*
D11*
X154450000Y-66367677D03*
D13*
X109260478Y-48760478D03*
X109260478Y-64316827D03*
D10*
X168000000Y-51500000D03*
D11*
X168000000Y-46500000D03*
D14*
X176920000Y-131000000D03*
D15*
X182000000Y-131000000D03*
D10*
X142900000Y-121367677D03*
D11*
X142900000Y-116367677D03*
D13*
X125500000Y-115000000D03*
X125500000Y-99443651D03*
D10*
X143000000Y-101367677D03*
D11*
X143000000Y-96367677D03*
D14*
X176920000Y-81000000D03*
D15*
X182000000Y-81000000D03*
D13*
X182380239Y-66119761D03*
X197936588Y-66119761D03*
D12*
X109000000Y-40000000D03*
D10*
X166000000Y-121367677D03*
D11*
X166000000Y-116367677D03*
D12*
X199000000Y-81000000D03*
D10*
X142900000Y-71367677D03*
D11*
X142900000Y-66367677D03*
D10*
X172000000Y-61867677D03*
D11*
X172000000Y-56867677D03*
D10*
X138000000Y-61500000D03*
D11*
X138000000Y-56500000D03*
D13*
X198500000Y-99500000D03*
X182943651Y-99500000D03*
D10*
X138000000Y-111500000D03*
D11*
X138000000Y-106500000D03*
D10*
X172000000Y-111867677D03*
D11*
X172000000Y-106867677D03*
D10*
X143000000Y-51367677D03*
D11*
X143000000Y-46367677D03*
D10*
X154000000Y-100367677D03*
D11*
X154000000Y-95367677D03*
D12*
X109000000Y-90000000D03*
D10*
X168000000Y-101500000D03*
D11*
X168000000Y-96500000D03*
D10*
X149000000Y-61000000D03*
D11*
X149000000Y-56000000D03*
D13*
X125500000Y-65000000D03*
X125500000Y-49443651D03*
D14*
X127460000Y-131300000D03*
D15*
X132540000Y-131300000D03*
D10*
X166000000Y-71367677D03*
D11*
X166000000Y-66367677D03*
D14*
X127460000Y-81300000D03*
D15*
X132540000Y-81300000D03*
D12*
X109000000Y-81000000D03*
D13*
X182380239Y-116119761D03*
X197936588Y-116119761D03*
D10*
X154450000Y-121367677D03*
D11*
X154450000Y-116367677D03*
D10*
X149000000Y-111000000D03*
D11*
X149000000Y-106000000D03*
D10*
X161000000Y-111000000D03*
D11*
X161000000Y-106000000D03*
D10*
X161000000Y-61000000D03*
D11*
X161000000Y-56000000D03*
D12*
X199000000Y-90000000D03*
D13*
X198500000Y-49500000D03*
X182943651Y-49500000D03*
D12*
X199000000Y-131000000D03*
D13*
X109260478Y-98760478D03*
X109260478Y-114316827D03*
D12*
X199000000Y-40000000D03*
D16*
X188000000Y-105625000D03*
X188000000Y-102500000D03*
X120500000Y-55625000D03*
X120500000Y-52500000D03*
X188000000Y-61062500D03*
X188000000Y-57937500D03*
X117500000Y-61125000D03*
X117500000Y-58000000D03*
X194000000Y-105625000D03*
X194000000Y-102500000D03*
X120500000Y-61125000D03*
X120500000Y-58000000D03*
X114500000Y-105625000D03*
X114500000Y-102500000D03*
X117500000Y-55625000D03*
X117500000Y-52500000D03*
X120500000Y-105625000D03*
X120500000Y-102500000D03*
X191000000Y-111062500D03*
X191000000Y-107937500D03*
X191000000Y-55625000D03*
X191000000Y-52500000D03*
X194000000Y-55625000D03*
X194000000Y-52500000D03*
X194000000Y-61062500D03*
X194000000Y-57937500D03*
X117500000Y-111125000D03*
X117500000Y-108000000D03*
X194000000Y-111062500D03*
X194000000Y-107937500D03*
X114500000Y-111125000D03*
X114500000Y-108000000D03*
X188000000Y-55625000D03*
X188000000Y-52500000D03*
X120500000Y-111125000D03*
X120500000Y-108000000D03*
X117500000Y-105625000D03*
X117500000Y-102500000D03*
X188000000Y-111062500D03*
X188000000Y-107937500D03*
X114500000Y-61125000D03*
X114500000Y-58000000D03*
X114500000Y-55625000D03*
X114500000Y-52500000D03*
X191000000Y-105625000D03*
X191000000Y-102500000D03*
X191000000Y-61062500D03*
X191000000Y-57937500D03*
D17*
X120500000Y-61125000D02*
X117500000Y-61125000D01*
X112452305Y-111125000D02*
X109260478Y-114316827D01*
X114500000Y-111125000D02*
X112452305Y-111125000D01*
X188000000Y-111062500D02*
X187437500Y-111062500D01*
X117500000Y-61125000D02*
X114500000Y-61125000D01*
D18*
X116311328Y-71367677D02*
X109260478Y-64316827D01*
D17*
X188000000Y-61062500D02*
X187322500Y-61062500D01*
D18*
X116311328Y-121367677D02*
X109260478Y-114316827D01*
D17*
X188000000Y-111062500D02*
X191000000Y-111062500D01*
X188000000Y-61062500D02*
X191000000Y-61062500D01*
D18*
X142900000Y-71367677D02*
X116311328Y-71367677D01*
D17*
X187437500Y-111062500D02*
X182380239Y-116119761D01*
X117500000Y-111125000D02*
X114500000Y-111125000D01*
X188000000Y-61062500D02*
X187437500Y-61062500D01*
X187437500Y-61062500D02*
X182380239Y-66119761D01*
X120500000Y-111125000D02*
X117500000Y-111125000D01*
X188000000Y-111062500D02*
X187322500Y-111062500D01*
X114500000Y-61125000D02*
X112452305Y-61125000D01*
X194000000Y-111062500D02*
X191000000Y-111062500D01*
X194000000Y-61062500D02*
X191000000Y-61062500D01*
D18*
X142900000Y-121367677D02*
X116311328Y-121367677D01*
D17*
X112452305Y-61125000D02*
X109260478Y-64316827D01*
X120500000Y-108000000D02*
X120500000Y-105625000D01*
X120500000Y-58000000D02*
X120500000Y-55625000D01*
X120500000Y-102500000D02*
X122443651Y-102500000D01*
X114500000Y-52500000D02*
X117500000Y-52500000D01*
X120500000Y-52500000D02*
X122443651Y-52500000D01*
X195500000Y-52500000D02*
X198500000Y-49500000D01*
X122443651Y-102500000D02*
X125500000Y-99443651D01*
X194000000Y-52500000D02*
X195500000Y-52500000D01*
X122443651Y-52500000D02*
X125500000Y-49443651D01*
X191000000Y-102500000D02*
X188000000Y-102500000D01*
X194000000Y-52500000D02*
X191000000Y-52500000D01*
X191000000Y-52500000D02*
X188000000Y-52500000D01*
X117500000Y-52500000D02*
X120500000Y-52500000D01*
X117500000Y-102500000D02*
X120500000Y-102500000D01*
X195500000Y-102500000D02*
X198500000Y-99500000D01*
X114500000Y-102500000D02*
X117500000Y-102500000D01*
X194000000Y-102500000D02*
X191000000Y-102500000D01*
X194000000Y-102500000D02*
X195500000Y-102500000D01*
X117500000Y-108000000D02*
X117500000Y-105625000D01*
X117500000Y-58000000D02*
X117500000Y-55625000D01*
X114500000Y-108000000D02*
X114500000Y-105625000D01*
X114500000Y-58000000D02*
X114500000Y-55625000D01*
D18*
X154000000Y-100367677D02*
X154000000Y-115917677D01*
X154000000Y-65917677D02*
X154450000Y-66367677D01*
X154000000Y-115917677D02*
X154450000Y-116367677D01*
X154000000Y-50367677D02*
X154000000Y-65917677D01*
D17*
X188000000Y-55625000D02*
X188000000Y-57937500D01*
X188000000Y-105625000D02*
X188000000Y-107937500D01*
X191000000Y-55625000D02*
X191000000Y-57937500D01*
X191000000Y-105625000D02*
X191000000Y-107937500D01*
X194000000Y-55625000D02*
X194000000Y-57937500D01*
X194000000Y-105625000D02*
X194000000Y-107937500D01*
D18*
X182000000Y-125000000D02*
X178000000Y-121000000D01*
X178000000Y-121000000D02*
X178000000Y-104443651D01*
X182000000Y-81000000D02*
X182000000Y-75000000D01*
X178000000Y-104443651D02*
X182943651Y-99500000D01*
X178000000Y-54443651D02*
X182943651Y-49500000D01*
X178000000Y-71000000D02*
X178000000Y-54443651D01*
X182000000Y-131000000D02*
X182000000Y-125000000D01*
X182000000Y-75000000D02*
X178000000Y-71000000D01*
M02*
