%TF.GenerationSoftware,KiCad,Pcbnew,7.0.1*%
%TF.CreationDate,2023-07-21T17:07:46+02:00*%
%TF.ProjectId,K_PSU_filter,4b5f5053-555f-4666-996c-7465722e6b69,rev?*%
%TF.SameCoordinates,Original*%
%TF.FileFunction,Drillmap*%
%TF.FilePolarity,Positive*%
%FSLAX45Y45*%
G04 Gerber Fmt 4.5, Leading zero omitted, Abs format (unit mm)*
G04 Created by KiCad (PCBNEW 7.0.1) date 2023-07-21 17:07:46*
%MOMM*%
%LPD*%
G01*
G04 APERTURE LIST*
%ADD10C,0.100000*%
%ADD11C,0.200000*%
G04 APERTURE END LIST*
D10*
X10400000Y-3550000D02*
X20400000Y-3550000D01*
X20400000Y-8550000D01*
X10400000Y-8550000D01*
X10400000Y-3550000D01*
D11*
X10642619Y-8867524D02*
X10642619Y-8667524D01*
X10642619Y-8667524D02*
X10690238Y-8667524D01*
X10690238Y-8667524D02*
X10718810Y-8677048D01*
X10718810Y-8677048D02*
X10737857Y-8696095D01*
X10737857Y-8696095D02*
X10747381Y-8715143D01*
X10747381Y-8715143D02*
X10756905Y-8753238D01*
X10756905Y-8753238D02*
X10756905Y-8781810D01*
X10756905Y-8781810D02*
X10747381Y-8819905D01*
X10747381Y-8819905D02*
X10737857Y-8838952D01*
X10737857Y-8838952D02*
X10718810Y-8858000D01*
X10718810Y-8858000D02*
X10690238Y-8867524D01*
X10690238Y-8867524D02*
X10642619Y-8867524D01*
X10842619Y-8867524D02*
X10842619Y-8734190D01*
X10842619Y-8772286D02*
X10852143Y-8753238D01*
X10852143Y-8753238D02*
X10861667Y-8743714D01*
X10861667Y-8743714D02*
X10880714Y-8734190D01*
X10880714Y-8734190D02*
X10899762Y-8734190D01*
X10966429Y-8867524D02*
X10966429Y-8734190D01*
X10966429Y-8667524D02*
X10956905Y-8677048D01*
X10956905Y-8677048D02*
X10966429Y-8686571D01*
X10966429Y-8686571D02*
X10975952Y-8677048D01*
X10975952Y-8677048D02*
X10966429Y-8667524D01*
X10966429Y-8667524D02*
X10966429Y-8686571D01*
X11090238Y-8867524D02*
X11071190Y-8858000D01*
X11071190Y-8858000D02*
X11061667Y-8838952D01*
X11061667Y-8838952D02*
X11061667Y-8667524D01*
X11195000Y-8867524D02*
X11175952Y-8858000D01*
X11175952Y-8858000D02*
X11166429Y-8838952D01*
X11166429Y-8838952D02*
X11166429Y-8667524D01*
X11423571Y-8867524D02*
X11423571Y-8667524D01*
X11423571Y-8667524D02*
X11490238Y-8810381D01*
X11490238Y-8810381D02*
X11556905Y-8667524D01*
X11556905Y-8667524D02*
X11556905Y-8867524D01*
X11737857Y-8867524D02*
X11737857Y-8762762D01*
X11737857Y-8762762D02*
X11728333Y-8743714D01*
X11728333Y-8743714D02*
X11709286Y-8734190D01*
X11709286Y-8734190D02*
X11671190Y-8734190D01*
X11671190Y-8734190D02*
X11652143Y-8743714D01*
X11737857Y-8858000D02*
X11718809Y-8867524D01*
X11718809Y-8867524D02*
X11671190Y-8867524D01*
X11671190Y-8867524D02*
X11652143Y-8858000D01*
X11652143Y-8858000D02*
X11642619Y-8838952D01*
X11642619Y-8838952D02*
X11642619Y-8819905D01*
X11642619Y-8819905D02*
X11652143Y-8800857D01*
X11652143Y-8800857D02*
X11671190Y-8791333D01*
X11671190Y-8791333D02*
X11718809Y-8791333D01*
X11718809Y-8791333D02*
X11737857Y-8781810D01*
X11833095Y-8734190D02*
X11833095Y-8934190D01*
X11833095Y-8743714D02*
X11852143Y-8734190D01*
X11852143Y-8734190D02*
X11890238Y-8734190D01*
X11890238Y-8734190D02*
X11909286Y-8743714D01*
X11909286Y-8743714D02*
X11918809Y-8753238D01*
X11918809Y-8753238D02*
X11928333Y-8772286D01*
X11928333Y-8772286D02*
X11928333Y-8829429D01*
X11928333Y-8829429D02*
X11918809Y-8848476D01*
X11918809Y-8848476D02*
X11909286Y-8858000D01*
X11909286Y-8858000D02*
X11890238Y-8867524D01*
X11890238Y-8867524D02*
X11852143Y-8867524D01*
X11852143Y-8867524D02*
X11833095Y-8858000D01*
X12014048Y-8848476D02*
X12023571Y-8858000D01*
X12023571Y-8858000D02*
X12014048Y-8867524D01*
X12014048Y-8867524D02*
X12004524Y-8858000D01*
X12004524Y-8858000D02*
X12014048Y-8848476D01*
X12014048Y-8848476D02*
X12014048Y-8867524D01*
X12014048Y-8743714D02*
X12023571Y-8753238D01*
X12023571Y-8753238D02*
X12014048Y-8762762D01*
X12014048Y-8762762D02*
X12004524Y-8753238D01*
X12004524Y-8753238D02*
X12014048Y-8743714D01*
X12014048Y-8743714D02*
X12014048Y-8762762D01*
M02*
