G04 #@! TF.GenerationSoftware,KiCad,Pcbnew,7.0.1*
G04 #@! TF.CreationDate,2023-06-27T15:11:53+02:00*
G04 #@! TF.ProjectId,K_PSU_dual_filter,4b5f5053-555f-4647-9561-6c5f66696c74,rev?*
G04 #@! TF.SameCoordinates,Original*
G04 #@! TF.FileFunction,Soldermask,Top*
G04 #@! TF.FilePolarity,Negative*
%FSLAX46Y46*%
G04 Gerber Fmt 4.6, Leading zero omitted, Abs format (unit mm)*
G04 Created by KiCad (PCBNEW 7.0.1) date 2023-06-27 15:11:53*
%MOMM*%
%LPD*%
G01*
G04 APERTURE LIST*
%ADD10R,2.000000X2.000000*%
%ADD11C,2.000000*%
%ADD12C,6.400000*%
%ADD13C,3.000000*%
%ADD14R,1.950000X1.950000*%
%ADD15C,1.950000*%
G04 APERTURE END LIST*
D10*
X154000000Y-50367677D03*
D11*
X154000000Y-45367677D03*
D12*
X109000000Y-131000000D03*
D10*
X154450000Y-71367677D03*
D11*
X154450000Y-66367677D03*
D13*
X109260478Y-48760478D03*
X109260478Y-64316827D03*
D10*
X168000000Y-51500000D03*
D11*
X168000000Y-46500000D03*
D14*
X176920000Y-131000000D03*
D15*
X182000000Y-131000000D03*
D10*
X142900000Y-121367677D03*
D11*
X142900000Y-116367677D03*
D13*
X125500000Y-115000000D03*
X125500000Y-99443651D03*
D10*
X143000000Y-101367677D03*
D11*
X143000000Y-96367677D03*
D14*
X176920000Y-81000000D03*
D15*
X182000000Y-81000000D03*
D13*
X182380239Y-66119761D03*
X197936588Y-66119761D03*
D12*
X109000000Y-40000000D03*
D10*
X166000000Y-121367677D03*
D11*
X166000000Y-116367677D03*
D12*
X199000000Y-81000000D03*
D10*
X142900000Y-71367677D03*
D11*
X142900000Y-66367677D03*
D10*
X172000000Y-61867677D03*
D11*
X172000000Y-56867677D03*
D10*
X138000000Y-61500000D03*
D11*
X138000000Y-56500000D03*
D13*
X198500000Y-99500000D03*
X182943651Y-99500000D03*
D10*
X138000000Y-111500000D03*
D11*
X138000000Y-106500000D03*
D10*
X172000000Y-111867677D03*
D11*
X172000000Y-106867677D03*
D10*
X143000000Y-51367677D03*
D11*
X143000000Y-46367677D03*
D10*
X154000000Y-100367677D03*
D11*
X154000000Y-95367677D03*
D12*
X109000000Y-90000000D03*
D10*
X168000000Y-101500000D03*
D11*
X168000000Y-96500000D03*
D10*
X149000000Y-61000000D03*
D11*
X149000000Y-56000000D03*
D13*
X125500000Y-65000000D03*
X125500000Y-49443651D03*
D14*
X127460000Y-131300000D03*
D15*
X132540000Y-131300000D03*
D10*
X166000000Y-71367677D03*
D11*
X166000000Y-66367677D03*
D14*
X127460000Y-81300000D03*
D15*
X132540000Y-81300000D03*
D12*
X109000000Y-81000000D03*
D13*
X182380239Y-116119761D03*
X197936588Y-116119761D03*
D10*
X154450000Y-121367677D03*
D11*
X154450000Y-116367677D03*
D10*
X149000000Y-111000000D03*
D11*
X149000000Y-106000000D03*
D10*
X161000000Y-111000000D03*
D11*
X161000000Y-106000000D03*
D10*
X161000000Y-61000000D03*
D11*
X161000000Y-56000000D03*
D12*
X199000000Y-90000000D03*
D13*
X198500000Y-49500000D03*
X182943651Y-49500000D03*
D12*
X199000000Y-131000000D03*
D13*
X109260478Y-98760478D03*
X109260478Y-114316827D03*
D12*
X199000000Y-40000000D03*
M02*
