G04 #@! TF.GenerationSoftware,KiCad,Pcbnew,7.0.1*
G04 #@! TF.CreationDate,2023-06-27T15:11:53+02:00*
G04 #@! TF.ProjectId,K_PSU_dual_filter,4b5f5053-555f-4647-9561-6c5f66696c74,rev?*
G04 #@! TF.SameCoordinates,Original*
G04 #@! TF.FileFunction,Copper,L1,Top*
G04 #@! TF.FilePolarity,Positive*
%FSLAX46Y46*%
G04 Gerber Fmt 4.6, Leading zero omitted, Abs format (unit mm)*
G04 Created by KiCad (PCBNEW 7.0.1) date 2023-06-27 15:11:53*
%MOMM*%
%LPD*%
G01*
G04 APERTURE LIST*
G04 #@! TA.AperFunction,ComponentPad*
%ADD10R,2.000000X2.000000*%
G04 #@! TD*
G04 #@! TA.AperFunction,ComponentPad*
%ADD11C,2.000000*%
G04 #@! TD*
G04 #@! TA.AperFunction,ComponentPad*
%ADD12C,6.400000*%
G04 #@! TD*
G04 #@! TA.AperFunction,ComponentPad*
%ADD13C,3.000000*%
G04 #@! TD*
G04 #@! TA.AperFunction,ComponentPad*
%ADD14R,1.950000X1.950000*%
G04 #@! TD*
G04 #@! TA.AperFunction,ComponentPad*
%ADD15C,1.950000*%
G04 #@! TD*
G04 #@! TA.AperFunction,Conductor*
%ADD16C,4.000000*%
G04 #@! TD*
G04 APERTURE END LIST*
D10*
X154000000Y-50367677D03*
D11*
X154000000Y-45367677D03*
D12*
X109000000Y-131000000D03*
D10*
X154450000Y-71367677D03*
D11*
X154450000Y-66367677D03*
D13*
X109260478Y-48760478D03*
X109260478Y-64316827D03*
D10*
X168000000Y-51500000D03*
D11*
X168000000Y-46500000D03*
D14*
X176920000Y-131000000D03*
D15*
X182000000Y-131000000D03*
D10*
X142900000Y-121367677D03*
D11*
X142900000Y-116367677D03*
D13*
X125500000Y-115000000D03*
X125500000Y-99443651D03*
D10*
X143000000Y-101367677D03*
D11*
X143000000Y-96367677D03*
D14*
X176920000Y-81000000D03*
D15*
X182000000Y-81000000D03*
D13*
X182380239Y-66119761D03*
X197936588Y-66119761D03*
D12*
X109000000Y-40000000D03*
D10*
X166000000Y-121367677D03*
D11*
X166000000Y-116367677D03*
D12*
X199000000Y-81000000D03*
D10*
X142900000Y-71367677D03*
D11*
X142900000Y-66367677D03*
D10*
X172000000Y-61867677D03*
D11*
X172000000Y-56867677D03*
D10*
X138000000Y-61500000D03*
D11*
X138000000Y-56500000D03*
D13*
X198500000Y-99500000D03*
X182943651Y-99500000D03*
D10*
X138000000Y-111500000D03*
D11*
X138000000Y-106500000D03*
D10*
X172000000Y-111867677D03*
D11*
X172000000Y-106867677D03*
D10*
X143000000Y-51367677D03*
D11*
X143000000Y-46367677D03*
D10*
X154000000Y-100367677D03*
D11*
X154000000Y-95367677D03*
D12*
X109000000Y-90000000D03*
D10*
X168000000Y-101500000D03*
D11*
X168000000Y-96500000D03*
D10*
X149000000Y-61000000D03*
D11*
X149000000Y-56000000D03*
D13*
X125500000Y-65000000D03*
X125500000Y-49443651D03*
D14*
X127460000Y-131300000D03*
D15*
X132540000Y-131300000D03*
D10*
X166000000Y-71367677D03*
D11*
X166000000Y-66367677D03*
D14*
X127460000Y-81300000D03*
D15*
X132540000Y-81300000D03*
D12*
X109000000Y-81000000D03*
D13*
X182380239Y-116119761D03*
X197936588Y-116119761D03*
D10*
X154450000Y-121367677D03*
D11*
X154450000Y-116367677D03*
D10*
X149000000Y-111000000D03*
D11*
X149000000Y-106000000D03*
D10*
X161000000Y-111000000D03*
D11*
X161000000Y-106000000D03*
D10*
X161000000Y-61000000D03*
D11*
X161000000Y-56000000D03*
D12*
X199000000Y-90000000D03*
D13*
X198500000Y-49500000D03*
X182943651Y-49500000D03*
D12*
X199000000Y-131000000D03*
D13*
X109260478Y-98760478D03*
X109260478Y-114316827D03*
D12*
X199000000Y-40000000D03*
D16*
X141960303Y-121367677D02*
X138000000Y-117407374D01*
X138000000Y-67407374D02*
X138000000Y-61500000D01*
X154450000Y-71367677D02*
X142900000Y-71367677D01*
X180128155Y-116119761D02*
X182380239Y-116119761D01*
X180128155Y-66119761D02*
X182380239Y-66119761D01*
X141960303Y-71367677D02*
X138000000Y-67407374D01*
X171000000Y-121367677D02*
X174880239Y-121367677D01*
X174880239Y-71367677D02*
X180128155Y-66119761D01*
X142900000Y-71367677D02*
X141960303Y-71367677D01*
X138000000Y-117407374D02*
X138000000Y-111500000D01*
X166000000Y-71367677D02*
X154450000Y-71367677D01*
X171000000Y-71367677D02*
X172000000Y-70367677D01*
X171000000Y-71367677D02*
X174880239Y-71367677D01*
X172000000Y-120367677D02*
X172000000Y-111867677D01*
X142900000Y-121367677D02*
X141960303Y-121367677D01*
X171000000Y-121367677D02*
X172000000Y-120367677D01*
X174880239Y-121367677D02*
X180128155Y-116119761D01*
X166000000Y-121367677D02*
X154450000Y-121367677D01*
X172000000Y-70367677D02*
X172000000Y-61867677D01*
X166000000Y-71367677D02*
X171000000Y-71367677D01*
X166000000Y-121367677D02*
X171000000Y-121367677D01*
X154450000Y-121367677D02*
X142900000Y-121367677D01*
X162367677Y-94000000D02*
X165500000Y-94000000D01*
X168235354Y-94000000D02*
X187000000Y-94000000D01*
X192500000Y-99500000D02*
X198500000Y-99500000D01*
X152632323Y-94000000D02*
X145367677Y-94000000D01*
X161000000Y-56000000D02*
X161000000Y-45367677D01*
X143000000Y-96367677D02*
X140632323Y-94000000D01*
X166867677Y-45367677D02*
X168235354Y-44000000D01*
X154000000Y-45367677D02*
X152632323Y-44000000D01*
X143000000Y-46367677D02*
X140632323Y-44000000D01*
X161000000Y-95367677D02*
X162367677Y-94000000D01*
X155367677Y-44000000D02*
X159632323Y-44000000D01*
X166867677Y-95367677D02*
X168000000Y-96500000D01*
X161000000Y-45367677D02*
X162367677Y-44000000D01*
X187000000Y-94000000D02*
X192500000Y-99500000D01*
X140632323Y-44000000D02*
X130943651Y-44000000D01*
X152632323Y-44000000D02*
X145367677Y-44000000D01*
X166867677Y-95367677D02*
X168235354Y-94000000D01*
X166867677Y-45367677D02*
X168000000Y-46500000D01*
X154000000Y-45367677D02*
X155367677Y-44000000D01*
X154000000Y-95367677D02*
X155367677Y-94000000D01*
X192500000Y-49500000D02*
X198500000Y-49500000D01*
X149000000Y-56000000D02*
X161000000Y-56000000D01*
X155367677Y-94000000D02*
X159632323Y-94000000D01*
X165500000Y-94000000D02*
X166867677Y-95367677D01*
X149000000Y-106000000D02*
X161000000Y-106000000D01*
X130943651Y-44000000D02*
X125500000Y-49443651D01*
X130943651Y-94000000D02*
X125500000Y-99443651D01*
X145367677Y-94000000D02*
X143000000Y-96367677D01*
X159632323Y-94000000D02*
X161000000Y-95367677D01*
X168235354Y-44000000D02*
X187000000Y-44000000D01*
X162367677Y-44000000D02*
X165500000Y-44000000D01*
X140632323Y-94000000D02*
X130943651Y-94000000D01*
X154000000Y-95367677D02*
X152632323Y-94000000D01*
X159632323Y-44000000D02*
X161000000Y-45367677D01*
X187000000Y-44000000D02*
X192500000Y-49500000D01*
X161000000Y-106000000D02*
X161000000Y-95367677D01*
X145367677Y-44000000D02*
X143000000Y-46367677D01*
X165500000Y-44000000D02*
X166867677Y-45367677D01*
X140000000Y-56500000D02*
X143000000Y-53500000D01*
X143000000Y-53500000D02*
X143000000Y-51367677D01*
X138000000Y-56500000D02*
X140000000Y-56500000D01*
X140000000Y-106500000D02*
X143000000Y-103500000D01*
X138000000Y-106500000D02*
X140000000Y-106500000D01*
X143000000Y-103500000D02*
X143000000Y-101367677D01*
X143632323Y-116367677D02*
X149000000Y-111000000D01*
X143632323Y-66367677D02*
X149000000Y-61000000D01*
X142900000Y-116367677D02*
X143632323Y-116367677D01*
X142900000Y-66367677D02*
X143632323Y-66367677D01*
X166000000Y-66000000D02*
X161000000Y-61000000D01*
X166000000Y-116000000D02*
X161000000Y-111000000D01*
X166000000Y-116367677D02*
X166000000Y-116000000D01*
X166000000Y-66367677D02*
X166000000Y-66000000D01*
X172000000Y-106867677D02*
X170867677Y-106867677D01*
X168000000Y-54000000D02*
X168000000Y-51500000D01*
X168000000Y-104000000D02*
X168000000Y-101500000D01*
X172000000Y-56867677D02*
X170867677Y-56867677D01*
X170867677Y-56867677D02*
X168000000Y-54000000D01*
X170867677Y-106867677D02*
X168000000Y-104000000D01*
X127460000Y-131300000D02*
X127300000Y-131300000D01*
X127300000Y-81300000D02*
X115000000Y-69000000D01*
X115000000Y-104500000D02*
X109260478Y-98760478D01*
X115000000Y-69000000D02*
X115000000Y-54500000D01*
X115000000Y-119000000D02*
X115000000Y-104500000D01*
X127300000Y-131300000D02*
X115000000Y-119000000D01*
X115000000Y-54500000D02*
X109260478Y-48760478D01*
X127460000Y-81300000D02*
X127300000Y-81300000D01*
X125500000Y-115000000D02*
X125500000Y-119500000D01*
X125500000Y-119500000D02*
X132540000Y-126540000D01*
X125500000Y-65000000D02*
X125500000Y-69500000D01*
X132540000Y-126540000D02*
X132540000Y-131300000D01*
X125500000Y-69500000D02*
X132540000Y-76540000D01*
X132540000Y-76540000D02*
X132540000Y-81300000D01*
X176920000Y-129080000D02*
X184000000Y-122000000D01*
X176920000Y-81000000D02*
X176920000Y-79080000D01*
X192056349Y-72000000D02*
X197936588Y-66119761D01*
X176920000Y-79080000D02*
X184000000Y-72000000D01*
X176920000Y-131000000D02*
X176920000Y-129080000D01*
X192056349Y-122000000D02*
X197936588Y-116119761D01*
X184000000Y-122000000D02*
X192056349Y-122000000D01*
X184000000Y-72000000D02*
X192056349Y-72000000D01*
M02*
