%TF.GenerationSoftware,KiCad,Pcbnew,7.0.1*%
%TF.CreationDate,2023-06-27T15:12:14+02:00*%
%TF.ProjectId,K_PSU_dual_filter,4b5f5053-555f-4647-9561-6c5f66696c74,rev?*%
%TF.SameCoordinates,Original*%
%TF.FileFunction,Drillmap*%
%TF.FilePolarity,Positive*%
%FSLAX45Y45*%
G04 Gerber Fmt 4.5, Leading zero omitted, Abs format (unit mm)*
G04 Created by KiCad (PCBNEW 7.0.1) date 2023-06-27 15:12:14*
%MOMM*%
%LPD*%
G01*
G04 APERTURE LIST*
%ADD10C,0.100000*%
%ADD11C,0.200000*%
G04 APERTURE END LIST*
D10*
X10500000Y-3500000D02*
X20500000Y-3500000D01*
X20500000Y-13500000D01*
X10500000Y-13500000D01*
X10500000Y-3500000D01*
D11*
X10742619Y-13817524D02*
X10742619Y-13617524D01*
X10742619Y-13617524D02*
X10790238Y-13617524D01*
X10790238Y-13617524D02*
X10818810Y-13627048D01*
X10818810Y-13627048D02*
X10837857Y-13646095D01*
X10837857Y-13646095D02*
X10847381Y-13665143D01*
X10847381Y-13665143D02*
X10856905Y-13703238D01*
X10856905Y-13703238D02*
X10856905Y-13731809D01*
X10856905Y-13731809D02*
X10847381Y-13769905D01*
X10847381Y-13769905D02*
X10837857Y-13788952D01*
X10837857Y-13788952D02*
X10818810Y-13808000D01*
X10818810Y-13808000D02*
X10790238Y-13817524D01*
X10790238Y-13817524D02*
X10742619Y-13817524D01*
X10942619Y-13817524D02*
X10942619Y-13684190D01*
X10942619Y-13722286D02*
X10952143Y-13703238D01*
X10952143Y-13703238D02*
X10961667Y-13693714D01*
X10961667Y-13693714D02*
X10980714Y-13684190D01*
X10980714Y-13684190D02*
X10999762Y-13684190D01*
X11066429Y-13817524D02*
X11066429Y-13684190D01*
X11066429Y-13617524D02*
X11056905Y-13627048D01*
X11056905Y-13627048D02*
X11066429Y-13636571D01*
X11066429Y-13636571D02*
X11075952Y-13627048D01*
X11075952Y-13627048D02*
X11066429Y-13617524D01*
X11066429Y-13617524D02*
X11066429Y-13636571D01*
X11190238Y-13817524D02*
X11171190Y-13808000D01*
X11171190Y-13808000D02*
X11161667Y-13788952D01*
X11161667Y-13788952D02*
X11161667Y-13617524D01*
X11295000Y-13817524D02*
X11275952Y-13808000D01*
X11275952Y-13808000D02*
X11266428Y-13788952D01*
X11266428Y-13788952D02*
X11266428Y-13617524D01*
X11523571Y-13817524D02*
X11523571Y-13617524D01*
X11523571Y-13617524D02*
X11590238Y-13760381D01*
X11590238Y-13760381D02*
X11656905Y-13617524D01*
X11656905Y-13617524D02*
X11656905Y-13817524D01*
X11837857Y-13817524D02*
X11837857Y-13712762D01*
X11837857Y-13712762D02*
X11828333Y-13693714D01*
X11828333Y-13693714D02*
X11809286Y-13684190D01*
X11809286Y-13684190D02*
X11771190Y-13684190D01*
X11771190Y-13684190D02*
X11752143Y-13693714D01*
X11837857Y-13808000D02*
X11818809Y-13817524D01*
X11818809Y-13817524D02*
X11771190Y-13817524D01*
X11771190Y-13817524D02*
X11752143Y-13808000D01*
X11752143Y-13808000D02*
X11742619Y-13788952D01*
X11742619Y-13788952D02*
X11742619Y-13769905D01*
X11742619Y-13769905D02*
X11752143Y-13750857D01*
X11752143Y-13750857D02*
X11771190Y-13741333D01*
X11771190Y-13741333D02*
X11818809Y-13741333D01*
X11818809Y-13741333D02*
X11837857Y-13731809D01*
X11933095Y-13684190D02*
X11933095Y-13884190D01*
X11933095Y-13693714D02*
X11952143Y-13684190D01*
X11952143Y-13684190D02*
X11990238Y-13684190D01*
X11990238Y-13684190D02*
X12009286Y-13693714D01*
X12009286Y-13693714D02*
X12018809Y-13703238D01*
X12018809Y-13703238D02*
X12028333Y-13722286D01*
X12028333Y-13722286D02*
X12028333Y-13779428D01*
X12028333Y-13779428D02*
X12018809Y-13798476D01*
X12018809Y-13798476D02*
X12009286Y-13808000D01*
X12009286Y-13808000D02*
X11990238Y-13817524D01*
X11990238Y-13817524D02*
X11952143Y-13817524D01*
X11952143Y-13817524D02*
X11933095Y-13808000D01*
X12114048Y-13798476D02*
X12123571Y-13808000D01*
X12123571Y-13808000D02*
X12114048Y-13817524D01*
X12114048Y-13817524D02*
X12104524Y-13808000D01*
X12104524Y-13808000D02*
X12114048Y-13798476D01*
X12114048Y-13798476D02*
X12114048Y-13817524D01*
X12114048Y-13693714D02*
X12123571Y-13703238D01*
X12123571Y-13703238D02*
X12114048Y-13712762D01*
X12114048Y-13712762D02*
X12104524Y-13703238D01*
X12104524Y-13703238D02*
X12114048Y-13693714D01*
X12114048Y-13693714D02*
X12114048Y-13712762D01*
M02*
