%TF.GenerationSoftware,KiCad,Pcbnew,7.0.1*%
%TF.CreationDate,2023-07-21T17:07:46+02:00*%
%TF.ProjectId,K_PSU_filter,4b5f5053-555f-4666-996c-7465722e6b69,rev?*%
%TF.SameCoordinates,Original*%
%TF.FileFunction,Drillmap*%
%TF.FilePolarity,Positive*%
%FSLAX45Y45*%
G04 Gerber Fmt 4.5, Leading zero omitted, Abs format (unit mm)*
G04 Created by KiCad (PCBNEW 7.0.1) date 2023-07-21 17:07:46*
%MOMM*%
%LPD*%
G01*
G04 APERTURE LIST*
%ADD10C,0.100000*%
%ADD11C,0.200000*%
%ADD12C,0.130000*%
%ADD13C,0.150000*%
%ADD14C,0.320000*%
G04 APERTURE END LIST*
D10*
X10400000Y-3550000D02*
X20400000Y-3550000D01*
X20400000Y-8550000D01*
X10400000Y-8550000D01*
X10400000Y-3550000D01*
D11*
D10*
X13750000Y-5600000D02*
X13850000Y-5700000D01*
X13850000Y-5600000D02*
X13750000Y-5700000D01*
X13750000Y-6100000D02*
X13850000Y-6200000D01*
X13850000Y-6100000D02*
X13750000Y-6200000D01*
X14240000Y-6586768D02*
X14340000Y-6686768D01*
X14340000Y-6586768D02*
X14240000Y-6686768D01*
X14240000Y-7086768D02*
X14340000Y-7186768D01*
X14340000Y-7086768D02*
X14240000Y-7186768D01*
X14250000Y-4586768D02*
X14350000Y-4686768D01*
X14350000Y-4586768D02*
X14250000Y-4686768D01*
X14250000Y-5086768D02*
X14350000Y-5186768D01*
X14350000Y-5086768D02*
X14250000Y-5186768D01*
X14850000Y-5550000D02*
X14950000Y-5650000D01*
X14950000Y-5550000D02*
X14850000Y-5650000D01*
X14850000Y-6050000D02*
X14950000Y-6150000D01*
X14950000Y-6050000D02*
X14850000Y-6150000D01*
X15350000Y-4486768D02*
X15450000Y-4586768D01*
X15450000Y-4486768D02*
X15350000Y-4586768D01*
X15350000Y-4986768D02*
X15450000Y-5086768D01*
X15450000Y-4986768D02*
X15350000Y-5086768D01*
X15395000Y-6586768D02*
X15495000Y-6686768D01*
X15495000Y-6586768D02*
X15395000Y-6686768D01*
X15395000Y-7086768D02*
X15495000Y-7186768D01*
X15495000Y-7086768D02*
X15395000Y-7186768D01*
X16050000Y-5550000D02*
X16150000Y-5650000D01*
X16150000Y-5550000D02*
X16050000Y-5650000D01*
X16050000Y-6050000D02*
X16150000Y-6150000D01*
X16150000Y-6050000D02*
X16050000Y-6150000D01*
X16550000Y-6586768D02*
X16650000Y-6686768D01*
X16650000Y-6586768D02*
X16550000Y-6686768D01*
X16550000Y-7086768D02*
X16650000Y-7186768D01*
X16650000Y-7086768D02*
X16550000Y-7186768D01*
X16750000Y-4600000D02*
X16850000Y-4700000D01*
X16850000Y-4600000D02*
X16750000Y-4700000D01*
X16750000Y-5100000D02*
X16850000Y-5200000D01*
X16850000Y-5100000D02*
X16750000Y-5200000D01*
X17150000Y-5636768D02*
X17250000Y-5736768D01*
X17250000Y-5636768D02*
X17150000Y-5736768D01*
X17150000Y-6136768D02*
X17250000Y-6236768D01*
X17250000Y-6136768D02*
X17150000Y-6236768D01*
D12*
X12811000Y-8130000D02*
G75*
G03*
X12811000Y-8130000I-65000J0D01*
G01*
X13319000Y-8130000D02*
G75*
G03*
X13319000Y-8130000I-65000J0D01*
G01*
X17757000Y-8100000D02*
G75*
G03*
X17757000Y-8100000I-65000J0D01*
G01*
X18265000Y-8100000D02*
G75*
G03*
X18265000Y-8100000I-65000J0D01*
G01*
D13*
X10976048Y-6548952D02*
X10976048Y-6698952D01*
X10901048Y-6623952D02*
X11051048Y-6623952D01*
X11044365Y-4925000D02*
X11044365Y-5075000D01*
X10969365Y-5000000D02*
X11119365Y-5000000D01*
X12531683Y-6548952D02*
X12531683Y-6698952D01*
X12456683Y-6623952D02*
X12606683Y-6623952D01*
X12600000Y-4925000D02*
X12600000Y-5075000D01*
X12525000Y-5000000D02*
X12675000Y-5000000D01*
X18238024Y-6536976D02*
X18238024Y-6686976D01*
X18163024Y-6611976D02*
X18313024Y-6611976D01*
X18294365Y-4875000D02*
X18294365Y-5025000D01*
X18219365Y-4950000D02*
X18369365Y-4950000D01*
X19793659Y-6536976D02*
X19793659Y-6686976D01*
X19718659Y-6611976D02*
X19868659Y-6611976D01*
X19850000Y-4875000D02*
X19850000Y-5025000D01*
X19775000Y-4950000D02*
X19925000Y-4950000D01*
D14*
X11013138Y-4113138D02*
X11013138Y-3886862D01*
X10786862Y-3886862D01*
X10786862Y-4113138D01*
X11013138Y-4113138D01*
X11013138Y-8213138D02*
X11013138Y-7986862D01*
X10786862Y-7986862D01*
X10786862Y-8213138D01*
X11013138Y-8213138D01*
X20013138Y-4113138D02*
X20013138Y-3886862D01*
X19786862Y-3886862D01*
X19786862Y-4113138D01*
X20013138Y-4113138D01*
X20013138Y-8213138D02*
X20013138Y-7986862D01*
X19786862Y-7986862D01*
X19786862Y-8213138D01*
X20013138Y-8213138D01*
D11*
X10642619Y-8867524D02*
X10642619Y-8667524D01*
X10642619Y-8667524D02*
X10690238Y-8667524D01*
X10690238Y-8667524D02*
X10718810Y-8677048D01*
X10718810Y-8677048D02*
X10737857Y-8696095D01*
X10737857Y-8696095D02*
X10747381Y-8715143D01*
X10747381Y-8715143D02*
X10756905Y-8753238D01*
X10756905Y-8753238D02*
X10756905Y-8781810D01*
X10756905Y-8781810D02*
X10747381Y-8819905D01*
X10747381Y-8819905D02*
X10737857Y-8838952D01*
X10737857Y-8838952D02*
X10718810Y-8858000D01*
X10718810Y-8858000D02*
X10690238Y-8867524D01*
X10690238Y-8867524D02*
X10642619Y-8867524D01*
X10842619Y-8867524D02*
X10842619Y-8734190D01*
X10842619Y-8772286D02*
X10852143Y-8753238D01*
X10852143Y-8753238D02*
X10861667Y-8743714D01*
X10861667Y-8743714D02*
X10880714Y-8734190D01*
X10880714Y-8734190D02*
X10899762Y-8734190D01*
X10966429Y-8867524D02*
X10966429Y-8734190D01*
X10966429Y-8667524D02*
X10956905Y-8677048D01*
X10956905Y-8677048D02*
X10966429Y-8686571D01*
X10966429Y-8686571D02*
X10975952Y-8677048D01*
X10975952Y-8677048D02*
X10966429Y-8667524D01*
X10966429Y-8667524D02*
X10966429Y-8686571D01*
X11090238Y-8867524D02*
X11071190Y-8858000D01*
X11071190Y-8858000D02*
X11061667Y-8838952D01*
X11061667Y-8838952D02*
X11061667Y-8667524D01*
X11195000Y-8867524D02*
X11175952Y-8858000D01*
X11175952Y-8858000D02*
X11166429Y-8838952D01*
X11166429Y-8838952D02*
X11166429Y-8667524D01*
X11423571Y-8867524D02*
X11423571Y-8667524D01*
X11423571Y-8667524D02*
X11490238Y-8810381D01*
X11490238Y-8810381D02*
X11556905Y-8667524D01*
X11556905Y-8667524D02*
X11556905Y-8867524D01*
X11737857Y-8867524D02*
X11737857Y-8762762D01*
X11737857Y-8762762D02*
X11728333Y-8743714D01*
X11728333Y-8743714D02*
X11709286Y-8734190D01*
X11709286Y-8734190D02*
X11671190Y-8734190D01*
X11671190Y-8734190D02*
X11652143Y-8743714D01*
X11737857Y-8858000D02*
X11718809Y-8867524D01*
X11718809Y-8867524D02*
X11671190Y-8867524D01*
X11671190Y-8867524D02*
X11652143Y-8858000D01*
X11652143Y-8858000D02*
X11642619Y-8838952D01*
X11642619Y-8838952D02*
X11642619Y-8819905D01*
X11642619Y-8819905D02*
X11652143Y-8800857D01*
X11652143Y-8800857D02*
X11671190Y-8791333D01*
X11671190Y-8791333D02*
X11718809Y-8791333D01*
X11718809Y-8791333D02*
X11737857Y-8781810D01*
X11833095Y-8734190D02*
X11833095Y-8934190D01*
X11833095Y-8743714D02*
X11852143Y-8734190D01*
X11852143Y-8734190D02*
X11890238Y-8734190D01*
X11890238Y-8734190D02*
X11909286Y-8743714D01*
X11909286Y-8743714D02*
X11918809Y-8753238D01*
X11918809Y-8753238D02*
X11928333Y-8772286D01*
X11928333Y-8772286D02*
X11928333Y-8829429D01*
X11928333Y-8829429D02*
X11918809Y-8848476D01*
X11918809Y-8848476D02*
X11909286Y-8858000D01*
X11909286Y-8858000D02*
X11890238Y-8867524D01*
X11890238Y-8867524D02*
X11852143Y-8867524D01*
X11852143Y-8867524D02*
X11833095Y-8858000D01*
X12014048Y-8848476D02*
X12023571Y-8858000D01*
X12023571Y-8858000D02*
X12014048Y-8867524D01*
X12014048Y-8867524D02*
X12004524Y-8858000D01*
X12004524Y-8858000D02*
X12014048Y-8848476D01*
X12014048Y-8848476D02*
X12014048Y-8867524D01*
X12014048Y-8743714D02*
X12023571Y-8753238D01*
X12023571Y-8753238D02*
X12014048Y-8762762D01*
X12014048Y-8762762D02*
X12004524Y-8753238D01*
X12004524Y-8753238D02*
X12014048Y-8743714D01*
X12014048Y-8743714D02*
X12014048Y-8762762D01*
D10*
X10295000Y-9145000D02*
X10395000Y-9245000D01*
X10395000Y-9145000D02*
X10295000Y-9245000D01*
D11*
X10747381Y-9287524D02*
X10633095Y-9287524D01*
X10690238Y-9287524D02*
X10690238Y-9087524D01*
X10690238Y-9087524D02*
X10671190Y-9116095D01*
X10671190Y-9116095D02*
X10652143Y-9135143D01*
X10652143Y-9135143D02*
X10633095Y-9144667D01*
X10833095Y-9268476D02*
X10842619Y-9278000D01*
X10842619Y-9278000D02*
X10833095Y-9287524D01*
X10833095Y-9287524D02*
X10823571Y-9278000D01*
X10823571Y-9278000D02*
X10833095Y-9268476D01*
X10833095Y-9268476D02*
X10833095Y-9287524D01*
X10966429Y-9087524D02*
X10985476Y-9087524D01*
X10985476Y-9087524D02*
X11004524Y-9097048D01*
X11004524Y-9097048D02*
X11014048Y-9106571D01*
X11014048Y-9106571D02*
X11023571Y-9125619D01*
X11023571Y-9125619D02*
X11033095Y-9163714D01*
X11033095Y-9163714D02*
X11033095Y-9211333D01*
X11033095Y-9211333D02*
X11023571Y-9249429D01*
X11023571Y-9249429D02*
X11014048Y-9268476D01*
X11014048Y-9268476D02*
X11004524Y-9278000D01*
X11004524Y-9278000D02*
X10985476Y-9287524D01*
X10985476Y-9287524D02*
X10966429Y-9287524D01*
X10966429Y-9287524D02*
X10947381Y-9278000D01*
X10947381Y-9278000D02*
X10937857Y-9268476D01*
X10937857Y-9268476D02*
X10928333Y-9249429D01*
X10928333Y-9249429D02*
X10918810Y-9211333D01*
X10918810Y-9211333D02*
X10918810Y-9163714D01*
X10918810Y-9163714D02*
X10928333Y-9125619D01*
X10928333Y-9125619D02*
X10937857Y-9106571D01*
X10937857Y-9106571D02*
X10947381Y-9097048D01*
X10947381Y-9097048D02*
X10966429Y-9087524D01*
X11156905Y-9087524D02*
X11175952Y-9087524D01*
X11175952Y-9087524D02*
X11195000Y-9097048D01*
X11195000Y-9097048D02*
X11204524Y-9106571D01*
X11204524Y-9106571D02*
X11214048Y-9125619D01*
X11214048Y-9125619D02*
X11223571Y-9163714D01*
X11223571Y-9163714D02*
X11223571Y-9211333D01*
X11223571Y-9211333D02*
X11214048Y-9249429D01*
X11214048Y-9249429D02*
X11204524Y-9268476D01*
X11204524Y-9268476D02*
X11195000Y-9278000D01*
X11195000Y-9278000D02*
X11175952Y-9287524D01*
X11175952Y-9287524D02*
X11156905Y-9287524D01*
X11156905Y-9287524D02*
X11137857Y-9278000D01*
X11137857Y-9278000D02*
X11128333Y-9268476D01*
X11128333Y-9268476D02*
X11118810Y-9249429D01*
X11118810Y-9249429D02*
X11109286Y-9211333D01*
X11109286Y-9211333D02*
X11109286Y-9163714D01*
X11109286Y-9163714D02*
X11118810Y-9125619D01*
X11118810Y-9125619D02*
X11128333Y-9106571D01*
X11128333Y-9106571D02*
X11137857Y-9097048D01*
X11137857Y-9097048D02*
X11156905Y-9087524D01*
X11347381Y-9087524D02*
X11366429Y-9087524D01*
X11366429Y-9087524D02*
X11385476Y-9097048D01*
X11385476Y-9097048D02*
X11395000Y-9106571D01*
X11395000Y-9106571D02*
X11404524Y-9125619D01*
X11404524Y-9125619D02*
X11414048Y-9163714D01*
X11414048Y-9163714D02*
X11414048Y-9211333D01*
X11414048Y-9211333D02*
X11404524Y-9249429D01*
X11404524Y-9249429D02*
X11395000Y-9268476D01*
X11395000Y-9268476D02*
X11385476Y-9278000D01*
X11385476Y-9278000D02*
X11366429Y-9287524D01*
X11366429Y-9287524D02*
X11347381Y-9287524D01*
X11347381Y-9287524D02*
X11328333Y-9278000D01*
X11328333Y-9278000D02*
X11318809Y-9268476D01*
X11318809Y-9268476D02*
X11309286Y-9249429D01*
X11309286Y-9249429D02*
X11299762Y-9211333D01*
X11299762Y-9211333D02*
X11299762Y-9163714D01*
X11299762Y-9163714D02*
X11309286Y-9125619D01*
X11309286Y-9125619D02*
X11318809Y-9106571D01*
X11318809Y-9106571D02*
X11328333Y-9097048D01*
X11328333Y-9097048D02*
X11347381Y-9087524D01*
X11499762Y-9287524D02*
X11499762Y-9154190D01*
X11499762Y-9173238D02*
X11509286Y-9163714D01*
X11509286Y-9163714D02*
X11528333Y-9154190D01*
X11528333Y-9154190D02*
X11556905Y-9154190D01*
X11556905Y-9154190D02*
X11575952Y-9163714D01*
X11575952Y-9163714D02*
X11585476Y-9182762D01*
X11585476Y-9182762D02*
X11585476Y-9287524D01*
X11585476Y-9182762D02*
X11595000Y-9163714D01*
X11595000Y-9163714D02*
X11614048Y-9154190D01*
X11614048Y-9154190D02*
X11642619Y-9154190D01*
X11642619Y-9154190D02*
X11661667Y-9163714D01*
X11661667Y-9163714D02*
X11671190Y-9182762D01*
X11671190Y-9182762D02*
X11671190Y-9287524D01*
X11766429Y-9287524D02*
X11766429Y-9154190D01*
X11766429Y-9173238D02*
X11775952Y-9163714D01*
X11775952Y-9163714D02*
X11795000Y-9154190D01*
X11795000Y-9154190D02*
X11823571Y-9154190D01*
X11823571Y-9154190D02*
X11842619Y-9163714D01*
X11842619Y-9163714D02*
X11852143Y-9182762D01*
X11852143Y-9182762D02*
X11852143Y-9287524D01*
X11852143Y-9182762D02*
X11861667Y-9163714D01*
X11861667Y-9163714D02*
X11880714Y-9154190D01*
X11880714Y-9154190D02*
X11909286Y-9154190D01*
X11909286Y-9154190D02*
X11928333Y-9163714D01*
X11928333Y-9163714D02*
X11937857Y-9182762D01*
X11937857Y-9182762D02*
X11937857Y-9287524D01*
X12328333Y-9078000D02*
X12156905Y-9335143D01*
X12585476Y-9087524D02*
X12604524Y-9087524D01*
X12604524Y-9087524D02*
X12623572Y-9097048D01*
X12623572Y-9097048D02*
X12633095Y-9106571D01*
X12633095Y-9106571D02*
X12642619Y-9125619D01*
X12642619Y-9125619D02*
X12652143Y-9163714D01*
X12652143Y-9163714D02*
X12652143Y-9211333D01*
X12652143Y-9211333D02*
X12642619Y-9249429D01*
X12642619Y-9249429D02*
X12633095Y-9268476D01*
X12633095Y-9268476D02*
X12623572Y-9278000D01*
X12623572Y-9278000D02*
X12604524Y-9287524D01*
X12604524Y-9287524D02*
X12585476Y-9287524D01*
X12585476Y-9287524D02*
X12566429Y-9278000D01*
X12566429Y-9278000D02*
X12556905Y-9268476D01*
X12556905Y-9268476D02*
X12547381Y-9249429D01*
X12547381Y-9249429D02*
X12537857Y-9211333D01*
X12537857Y-9211333D02*
X12537857Y-9163714D01*
X12537857Y-9163714D02*
X12547381Y-9125619D01*
X12547381Y-9125619D02*
X12556905Y-9106571D01*
X12556905Y-9106571D02*
X12566429Y-9097048D01*
X12566429Y-9097048D02*
X12585476Y-9087524D01*
X12737857Y-9268476D02*
X12747381Y-9278000D01*
X12747381Y-9278000D02*
X12737857Y-9287524D01*
X12737857Y-9287524D02*
X12728333Y-9278000D01*
X12728333Y-9278000D02*
X12737857Y-9268476D01*
X12737857Y-9268476D02*
X12737857Y-9287524D01*
X12871191Y-9087524D02*
X12890238Y-9087524D01*
X12890238Y-9087524D02*
X12909286Y-9097048D01*
X12909286Y-9097048D02*
X12918810Y-9106571D01*
X12918810Y-9106571D02*
X12928333Y-9125619D01*
X12928333Y-9125619D02*
X12937857Y-9163714D01*
X12937857Y-9163714D02*
X12937857Y-9211333D01*
X12937857Y-9211333D02*
X12928333Y-9249429D01*
X12928333Y-9249429D02*
X12918810Y-9268476D01*
X12918810Y-9268476D02*
X12909286Y-9278000D01*
X12909286Y-9278000D02*
X12890238Y-9287524D01*
X12890238Y-9287524D02*
X12871191Y-9287524D01*
X12871191Y-9287524D02*
X12852143Y-9278000D01*
X12852143Y-9278000D02*
X12842619Y-9268476D01*
X12842619Y-9268476D02*
X12833095Y-9249429D01*
X12833095Y-9249429D02*
X12823572Y-9211333D01*
X12823572Y-9211333D02*
X12823572Y-9163714D01*
X12823572Y-9163714D02*
X12833095Y-9125619D01*
X12833095Y-9125619D02*
X12842619Y-9106571D01*
X12842619Y-9106571D02*
X12852143Y-9097048D01*
X12852143Y-9097048D02*
X12871191Y-9087524D01*
X13004524Y-9087524D02*
X13128333Y-9087524D01*
X13128333Y-9087524D02*
X13061667Y-9163714D01*
X13061667Y-9163714D02*
X13090238Y-9163714D01*
X13090238Y-9163714D02*
X13109286Y-9173238D01*
X13109286Y-9173238D02*
X13118810Y-9182762D01*
X13118810Y-9182762D02*
X13128333Y-9201810D01*
X13128333Y-9201810D02*
X13128333Y-9249429D01*
X13128333Y-9249429D02*
X13118810Y-9268476D01*
X13118810Y-9268476D02*
X13109286Y-9278000D01*
X13109286Y-9278000D02*
X13090238Y-9287524D01*
X13090238Y-9287524D02*
X13033095Y-9287524D01*
X13033095Y-9287524D02*
X13014048Y-9278000D01*
X13014048Y-9278000D02*
X13004524Y-9268476D01*
X13223572Y-9287524D02*
X13261667Y-9287524D01*
X13261667Y-9287524D02*
X13280714Y-9278000D01*
X13280714Y-9278000D02*
X13290238Y-9268476D01*
X13290238Y-9268476D02*
X13309286Y-9239905D01*
X13309286Y-9239905D02*
X13318810Y-9201810D01*
X13318810Y-9201810D02*
X13318810Y-9125619D01*
X13318810Y-9125619D02*
X13309286Y-9106571D01*
X13309286Y-9106571D02*
X13299762Y-9097048D01*
X13299762Y-9097048D02*
X13280714Y-9087524D01*
X13280714Y-9087524D02*
X13242619Y-9087524D01*
X13242619Y-9087524D02*
X13223572Y-9097048D01*
X13223572Y-9097048D02*
X13214048Y-9106571D01*
X13214048Y-9106571D02*
X13204524Y-9125619D01*
X13204524Y-9125619D02*
X13204524Y-9173238D01*
X13204524Y-9173238D02*
X13214048Y-9192286D01*
X13214048Y-9192286D02*
X13223572Y-9201810D01*
X13223572Y-9201810D02*
X13242619Y-9211333D01*
X13242619Y-9211333D02*
X13280714Y-9211333D01*
X13280714Y-9211333D02*
X13299762Y-9201810D01*
X13299762Y-9201810D02*
X13309286Y-9192286D01*
X13309286Y-9192286D02*
X13318810Y-9173238D01*
X13490238Y-9154190D02*
X13490238Y-9287524D01*
X13442619Y-9078000D02*
X13395000Y-9220857D01*
X13395000Y-9220857D02*
X13518810Y-9220857D01*
X13585476Y-9087524D02*
X13585476Y-9125619D01*
X13661667Y-9087524D02*
X13661667Y-9125619D01*
X13956905Y-9363714D02*
X13947381Y-9354190D01*
X13947381Y-9354190D02*
X13928334Y-9325619D01*
X13928334Y-9325619D02*
X13918810Y-9306571D01*
X13918810Y-9306571D02*
X13909286Y-9278000D01*
X13909286Y-9278000D02*
X13899762Y-9230381D01*
X13899762Y-9230381D02*
X13899762Y-9192286D01*
X13899762Y-9192286D02*
X13909286Y-9144667D01*
X13909286Y-9144667D02*
X13918810Y-9116095D01*
X13918810Y-9116095D02*
X13928334Y-9097048D01*
X13928334Y-9097048D02*
X13947381Y-9068476D01*
X13947381Y-9068476D02*
X13956905Y-9058952D01*
X14023572Y-9106571D02*
X14033095Y-9097048D01*
X14033095Y-9097048D02*
X14052143Y-9087524D01*
X14052143Y-9087524D02*
X14099762Y-9087524D01*
X14099762Y-9087524D02*
X14118810Y-9097048D01*
X14118810Y-9097048D02*
X14128334Y-9106571D01*
X14128334Y-9106571D02*
X14137857Y-9125619D01*
X14137857Y-9125619D02*
X14137857Y-9144667D01*
X14137857Y-9144667D02*
X14128334Y-9173238D01*
X14128334Y-9173238D02*
X14014048Y-9287524D01*
X14014048Y-9287524D02*
X14137857Y-9287524D01*
X14261667Y-9087524D02*
X14280715Y-9087524D01*
X14280715Y-9087524D02*
X14299762Y-9097048D01*
X14299762Y-9097048D02*
X14309286Y-9106571D01*
X14309286Y-9106571D02*
X14318810Y-9125619D01*
X14318810Y-9125619D02*
X14328334Y-9163714D01*
X14328334Y-9163714D02*
X14328334Y-9211333D01*
X14328334Y-9211333D02*
X14318810Y-9249429D01*
X14318810Y-9249429D02*
X14309286Y-9268476D01*
X14309286Y-9268476D02*
X14299762Y-9278000D01*
X14299762Y-9278000D02*
X14280715Y-9287524D01*
X14280715Y-9287524D02*
X14261667Y-9287524D01*
X14261667Y-9287524D02*
X14242619Y-9278000D01*
X14242619Y-9278000D02*
X14233095Y-9268476D01*
X14233095Y-9268476D02*
X14223572Y-9249429D01*
X14223572Y-9249429D02*
X14214048Y-9211333D01*
X14214048Y-9211333D02*
X14214048Y-9163714D01*
X14214048Y-9163714D02*
X14223572Y-9125619D01*
X14223572Y-9125619D02*
X14233095Y-9106571D01*
X14233095Y-9106571D02*
X14242619Y-9097048D01*
X14242619Y-9097048D02*
X14261667Y-9087524D01*
X14566429Y-9287524D02*
X14566429Y-9087524D01*
X14652143Y-9287524D02*
X14652143Y-9182762D01*
X14652143Y-9182762D02*
X14642619Y-9163714D01*
X14642619Y-9163714D02*
X14623572Y-9154190D01*
X14623572Y-9154190D02*
X14595000Y-9154190D01*
X14595000Y-9154190D02*
X14575953Y-9163714D01*
X14575953Y-9163714D02*
X14566429Y-9173238D01*
X14775953Y-9287524D02*
X14756905Y-9278000D01*
X14756905Y-9278000D02*
X14747381Y-9268476D01*
X14747381Y-9268476D02*
X14737857Y-9249429D01*
X14737857Y-9249429D02*
X14737857Y-9192286D01*
X14737857Y-9192286D02*
X14747381Y-9173238D01*
X14747381Y-9173238D02*
X14756905Y-9163714D01*
X14756905Y-9163714D02*
X14775953Y-9154190D01*
X14775953Y-9154190D02*
X14804524Y-9154190D01*
X14804524Y-9154190D02*
X14823572Y-9163714D01*
X14823572Y-9163714D02*
X14833096Y-9173238D01*
X14833096Y-9173238D02*
X14842619Y-9192286D01*
X14842619Y-9192286D02*
X14842619Y-9249429D01*
X14842619Y-9249429D02*
X14833096Y-9268476D01*
X14833096Y-9268476D02*
X14823572Y-9278000D01*
X14823572Y-9278000D02*
X14804524Y-9287524D01*
X14804524Y-9287524D02*
X14775953Y-9287524D01*
X14956905Y-9287524D02*
X14937857Y-9278000D01*
X14937857Y-9278000D02*
X14928334Y-9258952D01*
X14928334Y-9258952D02*
X14928334Y-9087524D01*
X15109286Y-9278000D02*
X15090238Y-9287524D01*
X15090238Y-9287524D02*
X15052143Y-9287524D01*
X15052143Y-9287524D02*
X15033096Y-9278000D01*
X15033096Y-9278000D02*
X15023572Y-9258952D01*
X15023572Y-9258952D02*
X15023572Y-9182762D01*
X15023572Y-9182762D02*
X15033096Y-9163714D01*
X15033096Y-9163714D02*
X15052143Y-9154190D01*
X15052143Y-9154190D02*
X15090238Y-9154190D01*
X15090238Y-9154190D02*
X15109286Y-9163714D01*
X15109286Y-9163714D02*
X15118810Y-9182762D01*
X15118810Y-9182762D02*
X15118810Y-9201810D01*
X15118810Y-9201810D02*
X15023572Y-9220857D01*
X15195000Y-9278000D02*
X15214048Y-9287524D01*
X15214048Y-9287524D02*
X15252143Y-9287524D01*
X15252143Y-9287524D02*
X15271191Y-9278000D01*
X15271191Y-9278000D02*
X15280715Y-9258952D01*
X15280715Y-9258952D02*
X15280715Y-9249429D01*
X15280715Y-9249429D02*
X15271191Y-9230381D01*
X15271191Y-9230381D02*
X15252143Y-9220857D01*
X15252143Y-9220857D02*
X15223572Y-9220857D01*
X15223572Y-9220857D02*
X15204524Y-9211333D01*
X15204524Y-9211333D02*
X15195000Y-9192286D01*
X15195000Y-9192286D02*
X15195000Y-9182762D01*
X15195000Y-9182762D02*
X15204524Y-9163714D01*
X15204524Y-9163714D02*
X15223572Y-9154190D01*
X15223572Y-9154190D02*
X15252143Y-9154190D01*
X15252143Y-9154190D02*
X15271191Y-9163714D01*
X15347381Y-9363714D02*
X15356905Y-9354190D01*
X15356905Y-9354190D02*
X15375953Y-9325619D01*
X15375953Y-9325619D02*
X15385477Y-9306571D01*
X15385477Y-9306571D02*
X15395000Y-9278000D01*
X15395000Y-9278000D02*
X15404524Y-9230381D01*
X15404524Y-9230381D02*
X15404524Y-9192286D01*
X15404524Y-9192286D02*
X15395000Y-9144667D01*
X15395000Y-9144667D02*
X15385477Y-9116095D01*
X15385477Y-9116095D02*
X15375953Y-9097048D01*
X15375953Y-9097048D02*
X15356905Y-9068476D01*
X15356905Y-9068476D02*
X15347381Y-9058952D01*
D12*
X10395000Y-9459000D02*
G75*
G03*
X10395000Y-9459000I-65000J0D01*
G01*
D11*
X10747381Y-9551524D02*
X10633095Y-9551524D01*
X10690238Y-9551524D02*
X10690238Y-9351524D01*
X10690238Y-9351524D02*
X10671190Y-9380095D01*
X10671190Y-9380095D02*
X10652143Y-9399143D01*
X10652143Y-9399143D02*
X10633095Y-9408667D01*
X10833095Y-9532476D02*
X10842619Y-9542000D01*
X10842619Y-9542000D02*
X10833095Y-9551524D01*
X10833095Y-9551524D02*
X10823571Y-9542000D01*
X10823571Y-9542000D02*
X10833095Y-9532476D01*
X10833095Y-9532476D02*
X10833095Y-9551524D01*
X10909286Y-9351524D02*
X11033095Y-9351524D01*
X11033095Y-9351524D02*
X10966429Y-9427714D01*
X10966429Y-9427714D02*
X10995000Y-9427714D01*
X10995000Y-9427714D02*
X11014048Y-9437238D01*
X11014048Y-9437238D02*
X11023571Y-9446762D01*
X11023571Y-9446762D02*
X11033095Y-9465810D01*
X11033095Y-9465810D02*
X11033095Y-9513429D01*
X11033095Y-9513429D02*
X11023571Y-9532476D01*
X11023571Y-9532476D02*
X11014048Y-9542000D01*
X11014048Y-9542000D02*
X10995000Y-9551524D01*
X10995000Y-9551524D02*
X10937857Y-9551524D01*
X10937857Y-9551524D02*
X10918810Y-9542000D01*
X10918810Y-9542000D02*
X10909286Y-9532476D01*
X11156905Y-9351524D02*
X11175952Y-9351524D01*
X11175952Y-9351524D02*
X11195000Y-9361048D01*
X11195000Y-9361048D02*
X11204524Y-9370571D01*
X11204524Y-9370571D02*
X11214048Y-9389619D01*
X11214048Y-9389619D02*
X11223571Y-9427714D01*
X11223571Y-9427714D02*
X11223571Y-9475333D01*
X11223571Y-9475333D02*
X11214048Y-9513429D01*
X11214048Y-9513429D02*
X11204524Y-9532476D01*
X11204524Y-9532476D02*
X11195000Y-9542000D01*
X11195000Y-9542000D02*
X11175952Y-9551524D01*
X11175952Y-9551524D02*
X11156905Y-9551524D01*
X11156905Y-9551524D02*
X11137857Y-9542000D01*
X11137857Y-9542000D02*
X11128333Y-9532476D01*
X11128333Y-9532476D02*
X11118810Y-9513429D01*
X11118810Y-9513429D02*
X11109286Y-9475333D01*
X11109286Y-9475333D02*
X11109286Y-9427714D01*
X11109286Y-9427714D02*
X11118810Y-9389619D01*
X11118810Y-9389619D02*
X11128333Y-9370571D01*
X11128333Y-9370571D02*
X11137857Y-9361048D01*
X11137857Y-9361048D02*
X11156905Y-9351524D01*
X11347381Y-9351524D02*
X11366429Y-9351524D01*
X11366429Y-9351524D02*
X11385476Y-9361048D01*
X11385476Y-9361048D02*
X11395000Y-9370571D01*
X11395000Y-9370571D02*
X11404524Y-9389619D01*
X11404524Y-9389619D02*
X11414048Y-9427714D01*
X11414048Y-9427714D02*
X11414048Y-9475333D01*
X11414048Y-9475333D02*
X11404524Y-9513429D01*
X11404524Y-9513429D02*
X11395000Y-9532476D01*
X11395000Y-9532476D02*
X11385476Y-9542000D01*
X11385476Y-9542000D02*
X11366429Y-9551524D01*
X11366429Y-9551524D02*
X11347381Y-9551524D01*
X11347381Y-9551524D02*
X11328333Y-9542000D01*
X11328333Y-9542000D02*
X11318809Y-9532476D01*
X11318809Y-9532476D02*
X11309286Y-9513429D01*
X11309286Y-9513429D02*
X11299762Y-9475333D01*
X11299762Y-9475333D02*
X11299762Y-9427714D01*
X11299762Y-9427714D02*
X11309286Y-9389619D01*
X11309286Y-9389619D02*
X11318809Y-9370571D01*
X11318809Y-9370571D02*
X11328333Y-9361048D01*
X11328333Y-9361048D02*
X11347381Y-9351524D01*
X11499762Y-9551524D02*
X11499762Y-9418190D01*
X11499762Y-9437238D02*
X11509286Y-9427714D01*
X11509286Y-9427714D02*
X11528333Y-9418190D01*
X11528333Y-9418190D02*
X11556905Y-9418190D01*
X11556905Y-9418190D02*
X11575952Y-9427714D01*
X11575952Y-9427714D02*
X11585476Y-9446762D01*
X11585476Y-9446762D02*
X11585476Y-9551524D01*
X11585476Y-9446762D02*
X11595000Y-9427714D01*
X11595000Y-9427714D02*
X11614048Y-9418190D01*
X11614048Y-9418190D02*
X11642619Y-9418190D01*
X11642619Y-9418190D02*
X11661667Y-9427714D01*
X11661667Y-9427714D02*
X11671190Y-9446762D01*
X11671190Y-9446762D02*
X11671190Y-9551524D01*
X11766429Y-9551524D02*
X11766429Y-9418190D01*
X11766429Y-9437238D02*
X11775952Y-9427714D01*
X11775952Y-9427714D02*
X11795000Y-9418190D01*
X11795000Y-9418190D02*
X11823571Y-9418190D01*
X11823571Y-9418190D02*
X11842619Y-9427714D01*
X11842619Y-9427714D02*
X11852143Y-9446762D01*
X11852143Y-9446762D02*
X11852143Y-9551524D01*
X11852143Y-9446762D02*
X11861667Y-9427714D01*
X11861667Y-9427714D02*
X11880714Y-9418190D01*
X11880714Y-9418190D02*
X11909286Y-9418190D01*
X11909286Y-9418190D02*
X11928333Y-9427714D01*
X11928333Y-9427714D02*
X11937857Y-9446762D01*
X11937857Y-9446762D02*
X11937857Y-9551524D01*
X12328333Y-9342000D02*
X12156905Y-9599143D01*
X12585476Y-9351524D02*
X12604524Y-9351524D01*
X12604524Y-9351524D02*
X12623572Y-9361048D01*
X12623572Y-9361048D02*
X12633095Y-9370571D01*
X12633095Y-9370571D02*
X12642619Y-9389619D01*
X12642619Y-9389619D02*
X12652143Y-9427714D01*
X12652143Y-9427714D02*
X12652143Y-9475333D01*
X12652143Y-9475333D02*
X12642619Y-9513429D01*
X12642619Y-9513429D02*
X12633095Y-9532476D01*
X12633095Y-9532476D02*
X12623572Y-9542000D01*
X12623572Y-9542000D02*
X12604524Y-9551524D01*
X12604524Y-9551524D02*
X12585476Y-9551524D01*
X12585476Y-9551524D02*
X12566429Y-9542000D01*
X12566429Y-9542000D02*
X12556905Y-9532476D01*
X12556905Y-9532476D02*
X12547381Y-9513429D01*
X12547381Y-9513429D02*
X12537857Y-9475333D01*
X12537857Y-9475333D02*
X12537857Y-9427714D01*
X12537857Y-9427714D02*
X12547381Y-9389619D01*
X12547381Y-9389619D02*
X12556905Y-9370571D01*
X12556905Y-9370571D02*
X12566429Y-9361048D01*
X12566429Y-9361048D02*
X12585476Y-9351524D01*
X12737857Y-9532476D02*
X12747381Y-9542000D01*
X12747381Y-9542000D02*
X12737857Y-9551524D01*
X12737857Y-9551524D02*
X12728333Y-9542000D01*
X12728333Y-9542000D02*
X12737857Y-9532476D01*
X12737857Y-9532476D02*
X12737857Y-9551524D01*
X12871191Y-9351524D02*
X12890238Y-9351524D01*
X12890238Y-9351524D02*
X12909286Y-9361048D01*
X12909286Y-9361048D02*
X12918810Y-9370571D01*
X12918810Y-9370571D02*
X12928333Y-9389619D01*
X12928333Y-9389619D02*
X12937857Y-9427714D01*
X12937857Y-9427714D02*
X12937857Y-9475333D01*
X12937857Y-9475333D02*
X12928333Y-9513429D01*
X12928333Y-9513429D02*
X12918810Y-9532476D01*
X12918810Y-9532476D02*
X12909286Y-9542000D01*
X12909286Y-9542000D02*
X12890238Y-9551524D01*
X12890238Y-9551524D02*
X12871191Y-9551524D01*
X12871191Y-9551524D02*
X12852143Y-9542000D01*
X12852143Y-9542000D02*
X12842619Y-9532476D01*
X12842619Y-9532476D02*
X12833095Y-9513429D01*
X12833095Y-9513429D02*
X12823572Y-9475333D01*
X12823572Y-9475333D02*
X12823572Y-9427714D01*
X12823572Y-9427714D02*
X12833095Y-9389619D01*
X12833095Y-9389619D02*
X12842619Y-9370571D01*
X12842619Y-9370571D02*
X12852143Y-9361048D01*
X12852143Y-9361048D02*
X12871191Y-9351524D01*
X13118810Y-9351524D02*
X13023572Y-9351524D01*
X13023572Y-9351524D02*
X13014048Y-9446762D01*
X13014048Y-9446762D02*
X13023572Y-9437238D01*
X13023572Y-9437238D02*
X13042619Y-9427714D01*
X13042619Y-9427714D02*
X13090238Y-9427714D01*
X13090238Y-9427714D02*
X13109286Y-9437238D01*
X13109286Y-9437238D02*
X13118810Y-9446762D01*
X13118810Y-9446762D02*
X13128333Y-9465810D01*
X13128333Y-9465810D02*
X13128333Y-9513429D01*
X13128333Y-9513429D02*
X13118810Y-9532476D01*
X13118810Y-9532476D02*
X13109286Y-9542000D01*
X13109286Y-9542000D02*
X13090238Y-9551524D01*
X13090238Y-9551524D02*
X13042619Y-9551524D01*
X13042619Y-9551524D02*
X13023572Y-9542000D01*
X13023572Y-9542000D02*
X13014048Y-9532476D01*
X13318810Y-9551524D02*
X13204524Y-9551524D01*
X13261667Y-9551524D02*
X13261667Y-9351524D01*
X13261667Y-9351524D02*
X13242619Y-9380095D01*
X13242619Y-9380095D02*
X13223572Y-9399143D01*
X13223572Y-9399143D02*
X13204524Y-9408667D01*
X13395000Y-9370571D02*
X13404524Y-9361048D01*
X13404524Y-9361048D02*
X13423572Y-9351524D01*
X13423572Y-9351524D02*
X13471191Y-9351524D01*
X13471191Y-9351524D02*
X13490238Y-9361048D01*
X13490238Y-9361048D02*
X13499762Y-9370571D01*
X13499762Y-9370571D02*
X13509286Y-9389619D01*
X13509286Y-9389619D02*
X13509286Y-9408667D01*
X13509286Y-9408667D02*
X13499762Y-9437238D01*
X13499762Y-9437238D02*
X13385476Y-9551524D01*
X13385476Y-9551524D02*
X13509286Y-9551524D01*
X13585476Y-9351524D02*
X13585476Y-9389619D01*
X13661667Y-9351524D02*
X13661667Y-9389619D01*
X13956905Y-9627714D02*
X13947381Y-9618190D01*
X13947381Y-9618190D02*
X13928334Y-9589619D01*
X13928334Y-9589619D02*
X13918810Y-9570571D01*
X13918810Y-9570571D02*
X13909286Y-9542000D01*
X13909286Y-9542000D02*
X13899762Y-9494381D01*
X13899762Y-9494381D02*
X13899762Y-9456286D01*
X13899762Y-9456286D02*
X13909286Y-9408667D01*
X13909286Y-9408667D02*
X13918810Y-9380095D01*
X13918810Y-9380095D02*
X13928334Y-9361048D01*
X13928334Y-9361048D02*
X13947381Y-9332476D01*
X13947381Y-9332476D02*
X13956905Y-9322952D01*
X14118810Y-9418190D02*
X14118810Y-9551524D01*
X14071191Y-9342000D02*
X14023572Y-9484857D01*
X14023572Y-9484857D02*
X14147381Y-9484857D01*
X14375953Y-9551524D02*
X14375953Y-9351524D01*
X14461667Y-9551524D02*
X14461667Y-9446762D01*
X14461667Y-9446762D02*
X14452143Y-9427714D01*
X14452143Y-9427714D02*
X14433096Y-9418190D01*
X14433096Y-9418190D02*
X14404524Y-9418190D01*
X14404524Y-9418190D02*
X14385476Y-9427714D01*
X14385476Y-9427714D02*
X14375953Y-9437238D01*
X14585476Y-9551524D02*
X14566429Y-9542000D01*
X14566429Y-9542000D02*
X14556905Y-9532476D01*
X14556905Y-9532476D02*
X14547381Y-9513429D01*
X14547381Y-9513429D02*
X14547381Y-9456286D01*
X14547381Y-9456286D02*
X14556905Y-9437238D01*
X14556905Y-9437238D02*
X14566429Y-9427714D01*
X14566429Y-9427714D02*
X14585476Y-9418190D01*
X14585476Y-9418190D02*
X14614048Y-9418190D01*
X14614048Y-9418190D02*
X14633096Y-9427714D01*
X14633096Y-9427714D02*
X14642619Y-9437238D01*
X14642619Y-9437238D02*
X14652143Y-9456286D01*
X14652143Y-9456286D02*
X14652143Y-9513429D01*
X14652143Y-9513429D02*
X14642619Y-9532476D01*
X14642619Y-9532476D02*
X14633096Y-9542000D01*
X14633096Y-9542000D02*
X14614048Y-9551524D01*
X14614048Y-9551524D02*
X14585476Y-9551524D01*
X14766429Y-9551524D02*
X14747381Y-9542000D01*
X14747381Y-9542000D02*
X14737857Y-9522952D01*
X14737857Y-9522952D02*
X14737857Y-9351524D01*
X14918810Y-9542000D02*
X14899762Y-9551524D01*
X14899762Y-9551524D02*
X14861667Y-9551524D01*
X14861667Y-9551524D02*
X14842619Y-9542000D01*
X14842619Y-9542000D02*
X14833096Y-9522952D01*
X14833096Y-9522952D02*
X14833096Y-9446762D01*
X14833096Y-9446762D02*
X14842619Y-9427714D01*
X14842619Y-9427714D02*
X14861667Y-9418190D01*
X14861667Y-9418190D02*
X14899762Y-9418190D01*
X14899762Y-9418190D02*
X14918810Y-9427714D01*
X14918810Y-9427714D02*
X14928334Y-9446762D01*
X14928334Y-9446762D02*
X14928334Y-9465810D01*
X14928334Y-9465810D02*
X14833096Y-9484857D01*
X15004524Y-9542000D02*
X15023572Y-9551524D01*
X15023572Y-9551524D02*
X15061667Y-9551524D01*
X15061667Y-9551524D02*
X15080715Y-9542000D01*
X15080715Y-9542000D02*
X15090238Y-9522952D01*
X15090238Y-9522952D02*
X15090238Y-9513429D01*
X15090238Y-9513429D02*
X15080715Y-9494381D01*
X15080715Y-9494381D02*
X15061667Y-9484857D01*
X15061667Y-9484857D02*
X15033096Y-9484857D01*
X15033096Y-9484857D02*
X15014048Y-9475333D01*
X15014048Y-9475333D02*
X15004524Y-9456286D01*
X15004524Y-9456286D02*
X15004524Y-9446762D01*
X15004524Y-9446762D02*
X15014048Y-9427714D01*
X15014048Y-9427714D02*
X15033096Y-9418190D01*
X15033096Y-9418190D02*
X15061667Y-9418190D01*
X15061667Y-9418190D02*
X15080715Y-9427714D01*
X15156905Y-9627714D02*
X15166429Y-9618190D01*
X15166429Y-9618190D02*
X15185477Y-9589619D01*
X15185477Y-9589619D02*
X15195000Y-9570571D01*
X15195000Y-9570571D02*
X15204524Y-9542000D01*
X15204524Y-9542000D02*
X15214048Y-9494381D01*
X15214048Y-9494381D02*
X15214048Y-9456286D01*
X15214048Y-9456286D02*
X15204524Y-9408667D01*
X15204524Y-9408667D02*
X15195000Y-9380095D01*
X15195000Y-9380095D02*
X15185477Y-9361048D01*
X15185477Y-9361048D02*
X15166429Y-9332476D01*
X15166429Y-9332476D02*
X15156905Y-9322952D01*
D13*
X10320000Y-9648000D02*
X10320000Y-9798000D01*
X10245000Y-9723000D02*
X10395000Y-9723000D01*
D11*
X10747381Y-9815524D02*
X10633095Y-9815524D01*
X10690238Y-9815524D02*
X10690238Y-9615524D01*
X10690238Y-9615524D02*
X10671190Y-9644095D01*
X10671190Y-9644095D02*
X10652143Y-9663143D01*
X10652143Y-9663143D02*
X10633095Y-9672667D01*
X10833095Y-9796476D02*
X10842619Y-9806000D01*
X10842619Y-9806000D02*
X10833095Y-9815524D01*
X10833095Y-9815524D02*
X10823571Y-9806000D01*
X10823571Y-9806000D02*
X10833095Y-9796476D01*
X10833095Y-9796476D02*
X10833095Y-9815524D01*
X11023571Y-9615524D02*
X10928333Y-9615524D01*
X10928333Y-9615524D02*
X10918810Y-9710762D01*
X10918810Y-9710762D02*
X10928333Y-9701238D01*
X10928333Y-9701238D02*
X10947381Y-9691714D01*
X10947381Y-9691714D02*
X10995000Y-9691714D01*
X10995000Y-9691714D02*
X11014048Y-9701238D01*
X11014048Y-9701238D02*
X11023571Y-9710762D01*
X11023571Y-9710762D02*
X11033095Y-9729810D01*
X11033095Y-9729810D02*
X11033095Y-9777429D01*
X11033095Y-9777429D02*
X11023571Y-9796476D01*
X11023571Y-9796476D02*
X11014048Y-9806000D01*
X11014048Y-9806000D02*
X10995000Y-9815524D01*
X10995000Y-9815524D02*
X10947381Y-9815524D01*
X10947381Y-9815524D02*
X10928333Y-9806000D01*
X10928333Y-9806000D02*
X10918810Y-9796476D01*
X11156905Y-9615524D02*
X11175952Y-9615524D01*
X11175952Y-9615524D02*
X11195000Y-9625048D01*
X11195000Y-9625048D02*
X11204524Y-9634571D01*
X11204524Y-9634571D02*
X11214048Y-9653619D01*
X11214048Y-9653619D02*
X11223571Y-9691714D01*
X11223571Y-9691714D02*
X11223571Y-9739333D01*
X11223571Y-9739333D02*
X11214048Y-9777429D01*
X11214048Y-9777429D02*
X11204524Y-9796476D01*
X11204524Y-9796476D02*
X11195000Y-9806000D01*
X11195000Y-9806000D02*
X11175952Y-9815524D01*
X11175952Y-9815524D02*
X11156905Y-9815524D01*
X11156905Y-9815524D02*
X11137857Y-9806000D01*
X11137857Y-9806000D02*
X11128333Y-9796476D01*
X11128333Y-9796476D02*
X11118810Y-9777429D01*
X11118810Y-9777429D02*
X11109286Y-9739333D01*
X11109286Y-9739333D02*
X11109286Y-9691714D01*
X11109286Y-9691714D02*
X11118810Y-9653619D01*
X11118810Y-9653619D02*
X11128333Y-9634571D01*
X11128333Y-9634571D02*
X11137857Y-9625048D01*
X11137857Y-9625048D02*
X11156905Y-9615524D01*
X11347381Y-9615524D02*
X11366429Y-9615524D01*
X11366429Y-9615524D02*
X11385476Y-9625048D01*
X11385476Y-9625048D02*
X11395000Y-9634571D01*
X11395000Y-9634571D02*
X11404524Y-9653619D01*
X11404524Y-9653619D02*
X11414048Y-9691714D01*
X11414048Y-9691714D02*
X11414048Y-9739333D01*
X11414048Y-9739333D02*
X11404524Y-9777429D01*
X11404524Y-9777429D02*
X11395000Y-9796476D01*
X11395000Y-9796476D02*
X11385476Y-9806000D01*
X11385476Y-9806000D02*
X11366429Y-9815524D01*
X11366429Y-9815524D02*
X11347381Y-9815524D01*
X11347381Y-9815524D02*
X11328333Y-9806000D01*
X11328333Y-9806000D02*
X11318809Y-9796476D01*
X11318809Y-9796476D02*
X11309286Y-9777429D01*
X11309286Y-9777429D02*
X11299762Y-9739333D01*
X11299762Y-9739333D02*
X11299762Y-9691714D01*
X11299762Y-9691714D02*
X11309286Y-9653619D01*
X11309286Y-9653619D02*
X11318809Y-9634571D01*
X11318809Y-9634571D02*
X11328333Y-9625048D01*
X11328333Y-9625048D02*
X11347381Y-9615524D01*
X11499762Y-9815524D02*
X11499762Y-9682190D01*
X11499762Y-9701238D02*
X11509286Y-9691714D01*
X11509286Y-9691714D02*
X11528333Y-9682190D01*
X11528333Y-9682190D02*
X11556905Y-9682190D01*
X11556905Y-9682190D02*
X11575952Y-9691714D01*
X11575952Y-9691714D02*
X11585476Y-9710762D01*
X11585476Y-9710762D02*
X11585476Y-9815524D01*
X11585476Y-9710762D02*
X11595000Y-9691714D01*
X11595000Y-9691714D02*
X11614048Y-9682190D01*
X11614048Y-9682190D02*
X11642619Y-9682190D01*
X11642619Y-9682190D02*
X11661667Y-9691714D01*
X11661667Y-9691714D02*
X11671190Y-9710762D01*
X11671190Y-9710762D02*
X11671190Y-9815524D01*
X11766429Y-9815524D02*
X11766429Y-9682190D01*
X11766429Y-9701238D02*
X11775952Y-9691714D01*
X11775952Y-9691714D02*
X11795000Y-9682190D01*
X11795000Y-9682190D02*
X11823571Y-9682190D01*
X11823571Y-9682190D02*
X11842619Y-9691714D01*
X11842619Y-9691714D02*
X11852143Y-9710762D01*
X11852143Y-9710762D02*
X11852143Y-9815524D01*
X11852143Y-9710762D02*
X11861667Y-9691714D01*
X11861667Y-9691714D02*
X11880714Y-9682190D01*
X11880714Y-9682190D02*
X11909286Y-9682190D01*
X11909286Y-9682190D02*
X11928333Y-9691714D01*
X11928333Y-9691714D02*
X11937857Y-9710762D01*
X11937857Y-9710762D02*
X11937857Y-9815524D01*
X12328333Y-9606000D02*
X12156905Y-9863143D01*
X12585476Y-9615524D02*
X12604524Y-9615524D01*
X12604524Y-9615524D02*
X12623572Y-9625048D01*
X12623572Y-9625048D02*
X12633095Y-9634571D01*
X12633095Y-9634571D02*
X12642619Y-9653619D01*
X12642619Y-9653619D02*
X12652143Y-9691714D01*
X12652143Y-9691714D02*
X12652143Y-9739333D01*
X12652143Y-9739333D02*
X12642619Y-9777429D01*
X12642619Y-9777429D02*
X12633095Y-9796476D01*
X12633095Y-9796476D02*
X12623572Y-9806000D01*
X12623572Y-9806000D02*
X12604524Y-9815524D01*
X12604524Y-9815524D02*
X12585476Y-9815524D01*
X12585476Y-9815524D02*
X12566429Y-9806000D01*
X12566429Y-9806000D02*
X12556905Y-9796476D01*
X12556905Y-9796476D02*
X12547381Y-9777429D01*
X12547381Y-9777429D02*
X12537857Y-9739333D01*
X12537857Y-9739333D02*
X12537857Y-9691714D01*
X12537857Y-9691714D02*
X12547381Y-9653619D01*
X12547381Y-9653619D02*
X12556905Y-9634571D01*
X12556905Y-9634571D02*
X12566429Y-9625048D01*
X12566429Y-9625048D02*
X12585476Y-9615524D01*
X12737857Y-9796476D02*
X12747381Y-9806000D01*
X12747381Y-9806000D02*
X12737857Y-9815524D01*
X12737857Y-9815524D02*
X12728333Y-9806000D01*
X12728333Y-9806000D02*
X12737857Y-9796476D01*
X12737857Y-9796476D02*
X12737857Y-9815524D01*
X12871191Y-9615524D02*
X12890238Y-9615524D01*
X12890238Y-9615524D02*
X12909286Y-9625048D01*
X12909286Y-9625048D02*
X12918810Y-9634571D01*
X12918810Y-9634571D02*
X12928333Y-9653619D01*
X12928333Y-9653619D02*
X12937857Y-9691714D01*
X12937857Y-9691714D02*
X12937857Y-9739333D01*
X12937857Y-9739333D02*
X12928333Y-9777429D01*
X12928333Y-9777429D02*
X12918810Y-9796476D01*
X12918810Y-9796476D02*
X12909286Y-9806000D01*
X12909286Y-9806000D02*
X12890238Y-9815524D01*
X12890238Y-9815524D02*
X12871191Y-9815524D01*
X12871191Y-9815524D02*
X12852143Y-9806000D01*
X12852143Y-9806000D02*
X12842619Y-9796476D01*
X12842619Y-9796476D02*
X12833095Y-9777429D01*
X12833095Y-9777429D02*
X12823572Y-9739333D01*
X12823572Y-9739333D02*
X12823572Y-9691714D01*
X12823572Y-9691714D02*
X12833095Y-9653619D01*
X12833095Y-9653619D02*
X12842619Y-9634571D01*
X12842619Y-9634571D02*
X12852143Y-9625048D01*
X12852143Y-9625048D02*
X12871191Y-9615524D01*
X13118810Y-9615524D02*
X13023572Y-9615524D01*
X13023572Y-9615524D02*
X13014048Y-9710762D01*
X13014048Y-9710762D02*
X13023572Y-9701238D01*
X13023572Y-9701238D02*
X13042619Y-9691714D01*
X13042619Y-9691714D02*
X13090238Y-9691714D01*
X13090238Y-9691714D02*
X13109286Y-9701238D01*
X13109286Y-9701238D02*
X13118810Y-9710762D01*
X13118810Y-9710762D02*
X13128333Y-9729810D01*
X13128333Y-9729810D02*
X13128333Y-9777429D01*
X13128333Y-9777429D02*
X13118810Y-9796476D01*
X13118810Y-9796476D02*
X13109286Y-9806000D01*
X13109286Y-9806000D02*
X13090238Y-9815524D01*
X13090238Y-9815524D02*
X13042619Y-9815524D01*
X13042619Y-9815524D02*
X13023572Y-9806000D01*
X13023572Y-9806000D02*
X13014048Y-9796476D01*
X13223572Y-9815524D02*
X13261667Y-9815524D01*
X13261667Y-9815524D02*
X13280714Y-9806000D01*
X13280714Y-9806000D02*
X13290238Y-9796476D01*
X13290238Y-9796476D02*
X13309286Y-9767905D01*
X13309286Y-9767905D02*
X13318810Y-9729810D01*
X13318810Y-9729810D02*
X13318810Y-9653619D01*
X13318810Y-9653619D02*
X13309286Y-9634571D01*
X13309286Y-9634571D02*
X13299762Y-9625048D01*
X13299762Y-9625048D02*
X13280714Y-9615524D01*
X13280714Y-9615524D02*
X13242619Y-9615524D01*
X13242619Y-9615524D02*
X13223572Y-9625048D01*
X13223572Y-9625048D02*
X13214048Y-9634571D01*
X13214048Y-9634571D02*
X13204524Y-9653619D01*
X13204524Y-9653619D02*
X13204524Y-9701238D01*
X13204524Y-9701238D02*
X13214048Y-9720286D01*
X13214048Y-9720286D02*
X13223572Y-9729810D01*
X13223572Y-9729810D02*
X13242619Y-9739333D01*
X13242619Y-9739333D02*
X13280714Y-9739333D01*
X13280714Y-9739333D02*
X13299762Y-9729810D01*
X13299762Y-9729810D02*
X13309286Y-9720286D01*
X13309286Y-9720286D02*
X13318810Y-9701238D01*
X13509286Y-9815524D02*
X13395000Y-9815524D01*
X13452143Y-9815524D02*
X13452143Y-9615524D01*
X13452143Y-9615524D02*
X13433095Y-9644095D01*
X13433095Y-9644095D02*
X13414048Y-9663143D01*
X13414048Y-9663143D02*
X13395000Y-9672667D01*
X13585476Y-9615524D02*
X13585476Y-9653619D01*
X13661667Y-9615524D02*
X13661667Y-9653619D01*
X13956905Y-9891714D02*
X13947381Y-9882190D01*
X13947381Y-9882190D02*
X13928334Y-9853619D01*
X13928334Y-9853619D02*
X13918810Y-9834571D01*
X13918810Y-9834571D02*
X13909286Y-9806000D01*
X13909286Y-9806000D02*
X13899762Y-9758381D01*
X13899762Y-9758381D02*
X13899762Y-9720286D01*
X13899762Y-9720286D02*
X13909286Y-9672667D01*
X13909286Y-9672667D02*
X13918810Y-9644095D01*
X13918810Y-9644095D02*
X13928334Y-9625048D01*
X13928334Y-9625048D02*
X13947381Y-9596476D01*
X13947381Y-9596476D02*
X13956905Y-9586952D01*
X14061667Y-9701238D02*
X14042619Y-9691714D01*
X14042619Y-9691714D02*
X14033095Y-9682190D01*
X14033095Y-9682190D02*
X14023572Y-9663143D01*
X14023572Y-9663143D02*
X14023572Y-9653619D01*
X14023572Y-9653619D02*
X14033095Y-9634571D01*
X14033095Y-9634571D02*
X14042619Y-9625048D01*
X14042619Y-9625048D02*
X14061667Y-9615524D01*
X14061667Y-9615524D02*
X14099762Y-9615524D01*
X14099762Y-9615524D02*
X14118810Y-9625048D01*
X14118810Y-9625048D02*
X14128334Y-9634571D01*
X14128334Y-9634571D02*
X14137857Y-9653619D01*
X14137857Y-9653619D02*
X14137857Y-9663143D01*
X14137857Y-9663143D02*
X14128334Y-9682190D01*
X14128334Y-9682190D02*
X14118810Y-9691714D01*
X14118810Y-9691714D02*
X14099762Y-9701238D01*
X14099762Y-9701238D02*
X14061667Y-9701238D01*
X14061667Y-9701238D02*
X14042619Y-9710762D01*
X14042619Y-9710762D02*
X14033095Y-9720286D01*
X14033095Y-9720286D02*
X14023572Y-9739333D01*
X14023572Y-9739333D02*
X14023572Y-9777429D01*
X14023572Y-9777429D02*
X14033095Y-9796476D01*
X14033095Y-9796476D02*
X14042619Y-9806000D01*
X14042619Y-9806000D02*
X14061667Y-9815524D01*
X14061667Y-9815524D02*
X14099762Y-9815524D01*
X14099762Y-9815524D02*
X14118810Y-9806000D01*
X14118810Y-9806000D02*
X14128334Y-9796476D01*
X14128334Y-9796476D02*
X14137857Y-9777429D01*
X14137857Y-9777429D02*
X14137857Y-9739333D01*
X14137857Y-9739333D02*
X14128334Y-9720286D01*
X14128334Y-9720286D02*
X14118810Y-9710762D01*
X14118810Y-9710762D02*
X14099762Y-9701238D01*
X14375953Y-9815524D02*
X14375953Y-9615524D01*
X14461667Y-9815524D02*
X14461667Y-9710762D01*
X14461667Y-9710762D02*
X14452143Y-9691714D01*
X14452143Y-9691714D02*
X14433096Y-9682190D01*
X14433096Y-9682190D02*
X14404524Y-9682190D01*
X14404524Y-9682190D02*
X14385476Y-9691714D01*
X14385476Y-9691714D02*
X14375953Y-9701238D01*
X14585476Y-9815524D02*
X14566429Y-9806000D01*
X14566429Y-9806000D02*
X14556905Y-9796476D01*
X14556905Y-9796476D02*
X14547381Y-9777429D01*
X14547381Y-9777429D02*
X14547381Y-9720286D01*
X14547381Y-9720286D02*
X14556905Y-9701238D01*
X14556905Y-9701238D02*
X14566429Y-9691714D01*
X14566429Y-9691714D02*
X14585476Y-9682190D01*
X14585476Y-9682190D02*
X14614048Y-9682190D01*
X14614048Y-9682190D02*
X14633096Y-9691714D01*
X14633096Y-9691714D02*
X14642619Y-9701238D01*
X14642619Y-9701238D02*
X14652143Y-9720286D01*
X14652143Y-9720286D02*
X14652143Y-9777429D01*
X14652143Y-9777429D02*
X14642619Y-9796476D01*
X14642619Y-9796476D02*
X14633096Y-9806000D01*
X14633096Y-9806000D02*
X14614048Y-9815524D01*
X14614048Y-9815524D02*
X14585476Y-9815524D01*
X14766429Y-9815524D02*
X14747381Y-9806000D01*
X14747381Y-9806000D02*
X14737857Y-9786952D01*
X14737857Y-9786952D02*
X14737857Y-9615524D01*
X14918810Y-9806000D02*
X14899762Y-9815524D01*
X14899762Y-9815524D02*
X14861667Y-9815524D01*
X14861667Y-9815524D02*
X14842619Y-9806000D01*
X14842619Y-9806000D02*
X14833096Y-9786952D01*
X14833096Y-9786952D02*
X14833096Y-9710762D01*
X14833096Y-9710762D02*
X14842619Y-9691714D01*
X14842619Y-9691714D02*
X14861667Y-9682190D01*
X14861667Y-9682190D02*
X14899762Y-9682190D01*
X14899762Y-9682190D02*
X14918810Y-9691714D01*
X14918810Y-9691714D02*
X14928334Y-9710762D01*
X14928334Y-9710762D02*
X14928334Y-9729810D01*
X14928334Y-9729810D02*
X14833096Y-9748857D01*
X15004524Y-9806000D02*
X15023572Y-9815524D01*
X15023572Y-9815524D02*
X15061667Y-9815524D01*
X15061667Y-9815524D02*
X15080715Y-9806000D01*
X15080715Y-9806000D02*
X15090238Y-9786952D01*
X15090238Y-9786952D02*
X15090238Y-9777429D01*
X15090238Y-9777429D02*
X15080715Y-9758381D01*
X15080715Y-9758381D02*
X15061667Y-9748857D01*
X15061667Y-9748857D02*
X15033096Y-9748857D01*
X15033096Y-9748857D02*
X15014048Y-9739333D01*
X15014048Y-9739333D02*
X15004524Y-9720286D01*
X15004524Y-9720286D02*
X15004524Y-9710762D01*
X15004524Y-9710762D02*
X15014048Y-9691714D01*
X15014048Y-9691714D02*
X15033096Y-9682190D01*
X15033096Y-9682190D02*
X15061667Y-9682190D01*
X15061667Y-9682190D02*
X15080715Y-9691714D01*
X15156905Y-9891714D02*
X15166429Y-9882190D01*
X15166429Y-9882190D02*
X15185477Y-9853619D01*
X15185477Y-9853619D02*
X15195000Y-9834571D01*
X15195000Y-9834571D02*
X15204524Y-9806000D01*
X15204524Y-9806000D02*
X15214048Y-9758381D01*
X15214048Y-9758381D02*
X15214048Y-9720286D01*
X15214048Y-9720286D02*
X15204524Y-9672667D01*
X15204524Y-9672667D02*
X15195000Y-9644095D01*
X15195000Y-9644095D02*
X15185477Y-9625048D01*
X15185477Y-9625048D02*
X15166429Y-9596476D01*
X15166429Y-9596476D02*
X15156905Y-9586952D01*
X10365711Y-10063711D02*
X10365711Y-9922289D01*
X10224289Y-9922289D01*
X10224289Y-10063711D01*
X10365711Y-10063711D01*
X10623571Y-9885524D02*
X10747381Y-9885524D01*
X10747381Y-9885524D02*
X10680714Y-9961714D01*
X10680714Y-9961714D02*
X10709286Y-9961714D01*
X10709286Y-9961714D02*
X10728333Y-9971238D01*
X10728333Y-9971238D02*
X10737857Y-9980762D01*
X10737857Y-9980762D02*
X10747381Y-9999810D01*
X10747381Y-9999810D02*
X10747381Y-10047429D01*
X10747381Y-10047429D02*
X10737857Y-10066476D01*
X10737857Y-10066476D02*
X10728333Y-10076000D01*
X10728333Y-10076000D02*
X10709286Y-10085524D01*
X10709286Y-10085524D02*
X10652143Y-10085524D01*
X10652143Y-10085524D02*
X10633095Y-10076000D01*
X10633095Y-10076000D02*
X10623571Y-10066476D01*
X10833095Y-10066476D02*
X10842619Y-10076000D01*
X10842619Y-10076000D02*
X10833095Y-10085524D01*
X10833095Y-10085524D02*
X10823571Y-10076000D01*
X10823571Y-10076000D02*
X10833095Y-10066476D01*
X10833095Y-10066476D02*
X10833095Y-10085524D01*
X10918810Y-9904571D02*
X10928333Y-9895048D01*
X10928333Y-9895048D02*
X10947381Y-9885524D01*
X10947381Y-9885524D02*
X10995000Y-9885524D01*
X10995000Y-9885524D02*
X11014048Y-9895048D01*
X11014048Y-9895048D02*
X11023571Y-9904571D01*
X11023571Y-9904571D02*
X11033095Y-9923619D01*
X11033095Y-9923619D02*
X11033095Y-9942667D01*
X11033095Y-9942667D02*
X11023571Y-9971238D01*
X11023571Y-9971238D02*
X10909286Y-10085524D01*
X10909286Y-10085524D02*
X11033095Y-10085524D01*
X11156905Y-9885524D02*
X11175952Y-9885524D01*
X11175952Y-9885524D02*
X11195000Y-9895048D01*
X11195000Y-9895048D02*
X11204524Y-9904571D01*
X11204524Y-9904571D02*
X11214048Y-9923619D01*
X11214048Y-9923619D02*
X11223571Y-9961714D01*
X11223571Y-9961714D02*
X11223571Y-10009333D01*
X11223571Y-10009333D02*
X11214048Y-10047429D01*
X11214048Y-10047429D02*
X11204524Y-10066476D01*
X11204524Y-10066476D02*
X11195000Y-10076000D01*
X11195000Y-10076000D02*
X11175952Y-10085524D01*
X11175952Y-10085524D02*
X11156905Y-10085524D01*
X11156905Y-10085524D02*
X11137857Y-10076000D01*
X11137857Y-10076000D02*
X11128333Y-10066476D01*
X11128333Y-10066476D02*
X11118810Y-10047429D01*
X11118810Y-10047429D02*
X11109286Y-10009333D01*
X11109286Y-10009333D02*
X11109286Y-9961714D01*
X11109286Y-9961714D02*
X11118810Y-9923619D01*
X11118810Y-9923619D02*
X11128333Y-9904571D01*
X11128333Y-9904571D02*
X11137857Y-9895048D01*
X11137857Y-9895048D02*
X11156905Y-9885524D01*
X11347381Y-9885524D02*
X11366429Y-9885524D01*
X11366429Y-9885524D02*
X11385476Y-9895048D01*
X11385476Y-9895048D02*
X11395000Y-9904571D01*
X11395000Y-9904571D02*
X11404524Y-9923619D01*
X11404524Y-9923619D02*
X11414048Y-9961714D01*
X11414048Y-9961714D02*
X11414048Y-10009333D01*
X11414048Y-10009333D02*
X11404524Y-10047429D01*
X11404524Y-10047429D02*
X11395000Y-10066476D01*
X11395000Y-10066476D02*
X11385476Y-10076000D01*
X11385476Y-10076000D02*
X11366429Y-10085524D01*
X11366429Y-10085524D02*
X11347381Y-10085524D01*
X11347381Y-10085524D02*
X11328333Y-10076000D01*
X11328333Y-10076000D02*
X11318809Y-10066476D01*
X11318809Y-10066476D02*
X11309286Y-10047429D01*
X11309286Y-10047429D02*
X11299762Y-10009333D01*
X11299762Y-10009333D02*
X11299762Y-9961714D01*
X11299762Y-9961714D02*
X11309286Y-9923619D01*
X11309286Y-9923619D02*
X11318809Y-9904571D01*
X11318809Y-9904571D02*
X11328333Y-9895048D01*
X11328333Y-9895048D02*
X11347381Y-9885524D01*
X11499762Y-10085524D02*
X11499762Y-9952190D01*
X11499762Y-9971238D02*
X11509286Y-9961714D01*
X11509286Y-9961714D02*
X11528333Y-9952190D01*
X11528333Y-9952190D02*
X11556905Y-9952190D01*
X11556905Y-9952190D02*
X11575952Y-9961714D01*
X11575952Y-9961714D02*
X11585476Y-9980762D01*
X11585476Y-9980762D02*
X11585476Y-10085524D01*
X11585476Y-9980762D02*
X11595000Y-9961714D01*
X11595000Y-9961714D02*
X11614048Y-9952190D01*
X11614048Y-9952190D02*
X11642619Y-9952190D01*
X11642619Y-9952190D02*
X11661667Y-9961714D01*
X11661667Y-9961714D02*
X11671190Y-9980762D01*
X11671190Y-9980762D02*
X11671190Y-10085524D01*
X11766429Y-10085524D02*
X11766429Y-9952190D01*
X11766429Y-9971238D02*
X11775952Y-9961714D01*
X11775952Y-9961714D02*
X11795000Y-9952190D01*
X11795000Y-9952190D02*
X11823571Y-9952190D01*
X11823571Y-9952190D02*
X11842619Y-9961714D01*
X11842619Y-9961714D02*
X11852143Y-9980762D01*
X11852143Y-9980762D02*
X11852143Y-10085524D01*
X11852143Y-9980762D02*
X11861667Y-9961714D01*
X11861667Y-9961714D02*
X11880714Y-9952190D01*
X11880714Y-9952190D02*
X11909286Y-9952190D01*
X11909286Y-9952190D02*
X11928333Y-9961714D01*
X11928333Y-9961714D02*
X11937857Y-9980762D01*
X11937857Y-9980762D02*
X11937857Y-10085524D01*
X12328333Y-9876000D02*
X12156905Y-10133143D01*
X12585476Y-9885524D02*
X12604524Y-9885524D01*
X12604524Y-9885524D02*
X12623572Y-9895048D01*
X12623572Y-9895048D02*
X12633095Y-9904571D01*
X12633095Y-9904571D02*
X12642619Y-9923619D01*
X12642619Y-9923619D02*
X12652143Y-9961714D01*
X12652143Y-9961714D02*
X12652143Y-10009333D01*
X12652143Y-10009333D02*
X12642619Y-10047429D01*
X12642619Y-10047429D02*
X12633095Y-10066476D01*
X12633095Y-10066476D02*
X12623572Y-10076000D01*
X12623572Y-10076000D02*
X12604524Y-10085524D01*
X12604524Y-10085524D02*
X12585476Y-10085524D01*
X12585476Y-10085524D02*
X12566429Y-10076000D01*
X12566429Y-10076000D02*
X12556905Y-10066476D01*
X12556905Y-10066476D02*
X12547381Y-10047429D01*
X12547381Y-10047429D02*
X12537857Y-10009333D01*
X12537857Y-10009333D02*
X12537857Y-9961714D01*
X12537857Y-9961714D02*
X12547381Y-9923619D01*
X12547381Y-9923619D02*
X12556905Y-9904571D01*
X12556905Y-9904571D02*
X12566429Y-9895048D01*
X12566429Y-9895048D02*
X12585476Y-9885524D01*
X12737857Y-10066476D02*
X12747381Y-10076000D01*
X12747381Y-10076000D02*
X12737857Y-10085524D01*
X12737857Y-10085524D02*
X12728333Y-10076000D01*
X12728333Y-10076000D02*
X12737857Y-10066476D01*
X12737857Y-10066476D02*
X12737857Y-10085524D01*
X12937857Y-10085524D02*
X12823572Y-10085524D01*
X12880714Y-10085524D02*
X12880714Y-9885524D01*
X12880714Y-9885524D02*
X12861667Y-9914095D01*
X12861667Y-9914095D02*
X12842619Y-9933143D01*
X12842619Y-9933143D02*
X12823572Y-9942667D01*
X13014048Y-9904571D02*
X13023572Y-9895048D01*
X13023572Y-9895048D02*
X13042619Y-9885524D01*
X13042619Y-9885524D02*
X13090238Y-9885524D01*
X13090238Y-9885524D02*
X13109286Y-9895048D01*
X13109286Y-9895048D02*
X13118810Y-9904571D01*
X13118810Y-9904571D02*
X13128333Y-9923619D01*
X13128333Y-9923619D02*
X13128333Y-9942667D01*
X13128333Y-9942667D02*
X13118810Y-9971238D01*
X13118810Y-9971238D02*
X13004524Y-10085524D01*
X13004524Y-10085524D02*
X13128333Y-10085524D01*
X13299762Y-9885524D02*
X13261667Y-9885524D01*
X13261667Y-9885524D02*
X13242619Y-9895048D01*
X13242619Y-9895048D02*
X13233095Y-9904571D01*
X13233095Y-9904571D02*
X13214048Y-9933143D01*
X13214048Y-9933143D02*
X13204524Y-9971238D01*
X13204524Y-9971238D02*
X13204524Y-10047429D01*
X13204524Y-10047429D02*
X13214048Y-10066476D01*
X13214048Y-10066476D02*
X13223572Y-10076000D01*
X13223572Y-10076000D02*
X13242619Y-10085524D01*
X13242619Y-10085524D02*
X13280714Y-10085524D01*
X13280714Y-10085524D02*
X13299762Y-10076000D01*
X13299762Y-10076000D02*
X13309286Y-10066476D01*
X13309286Y-10066476D02*
X13318810Y-10047429D01*
X13318810Y-10047429D02*
X13318810Y-9999810D01*
X13318810Y-9999810D02*
X13309286Y-9980762D01*
X13309286Y-9980762D02*
X13299762Y-9971238D01*
X13299762Y-9971238D02*
X13280714Y-9961714D01*
X13280714Y-9961714D02*
X13242619Y-9961714D01*
X13242619Y-9961714D02*
X13223572Y-9971238D01*
X13223572Y-9971238D02*
X13214048Y-9980762D01*
X13214048Y-9980762D02*
X13204524Y-9999810D01*
X13442619Y-9885524D02*
X13461667Y-9885524D01*
X13461667Y-9885524D02*
X13480714Y-9895048D01*
X13480714Y-9895048D02*
X13490238Y-9904571D01*
X13490238Y-9904571D02*
X13499762Y-9923619D01*
X13499762Y-9923619D02*
X13509286Y-9961714D01*
X13509286Y-9961714D02*
X13509286Y-10009333D01*
X13509286Y-10009333D02*
X13499762Y-10047429D01*
X13499762Y-10047429D02*
X13490238Y-10066476D01*
X13490238Y-10066476D02*
X13480714Y-10076000D01*
X13480714Y-10076000D02*
X13461667Y-10085524D01*
X13461667Y-10085524D02*
X13442619Y-10085524D01*
X13442619Y-10085524D02*
X13423572Y-10076000D01*
X13423572Y-10076000D02*
X13414048Y-10066476D01*
X13414048Y-10066476D02*
X13404524Y-10047429D01*
X13404524Y-10047429D02*
X13395000Y-10009333D01*
X13395000Y-10009333D02*
X13395000Y-9961714D01*
X13395000Y-9961714D02*
X13404524Y-9923619D01*
X13404524Y-9923619D02*
X13414048Y-9904571D01*
X13414048Y-9904571D02*
X13423572Y-9895048D01*
X13423572Y-9895048D02*
X13442619Y-9885524D01*
X13585476Y-9885524D02*
X13585476Y-9923619D01*
X13661667Y-9885524D02*
X13661667Y-9923619D01*
X13956905Y-10161714D02*
X13947381Y-10152190D01*
X13947381Y-10152190D02*
X13928334Y-10123619D01*
X13928334Y-10123619D02*
X13918810Y-10104571D01*
X13918810Y-10104571D02*
X13909286Y-10076000D01*
X13909286Y-10076000D02*
X13899762Y-10028381D01*
X13899762Y-10028381D02*
X13899762Y-9990286D01*
X13899762Y-9990286D02*
X13909286Y-9942667D01*
X13909286Y-9942667D02*
X13918810Y-9914095D01*
X13918810Y-9914095D02*
X13928334Y-9895048D01*
X13928334Y-9895048D02*
X13947381Y-9866476D01*
X13947381Y-9866476D02*
X13956905Y-9856952D01*
X14118810Y-9952190D02*
X14118810Y-10085524D01*
X14071191Y-9876000D02*
X14023572Y-10018857D01*
X14023572Y-10018857D02*
X14147381Y-10018857D01*
X14375953Y-10085524D02*
X14375953Y-9885524D01*
X14461667Y-10085524D02*
X14461667Y-9980762D01*
X14461667Y-9980762D02*
X14452143Y-9961714D01*
X14452143Y-9961714D02*
X14433096Y-9952190D01*
X14433096Y-9952190D02*
X14404524Y-9952190D01*
X14404524Y-9952190D02*
X14385476Y-9961714D01*
X14385476Y-9961714D02*
X14375953Y-9971238D01*
X14585476Y-10085524D02*
X14566429Y-10076000D01*
X14566429Y-10076000D02*
X14556905Y-10066476D01*
X14556905Y-10066476D02*
X14547381Y-10047429D01*
X14547381Y-10047429D02*
X14547381Y-9990286D01*
X14547381Y-9990286D02*
X14556905Y-9971238D01*
X14556905Y-9971238D02*
X14566429Y-9961714D01*
X14566429Y-9961714D02*
X14585476Y-9952190D01*
X14585476Y-9952190D02*
X14614048Y-9952190D01*
X14614048Y-9952190D02*
X14633096Y-9961714D01*
X14633096Y-9961714D02*
X14642619Y-9971238D01*
X14642619Y-9971238D02*
X14652143Y-9990286D01*
X14652143Y-9990286D02*
X14652143Y-10047429D01*
X14652143Y-10047429D02*
X14642619Y-10066476D01*
X14642619Y-10066476D02*
X14633096Y-10076000D01*
X14633096Y-10076000D02*
X14614048Y-10085524D01*
X14614048Y-10085524D02*
X14585476Y-10085524D01*
X14766429Y-10085524D02*
X14747381Y-10076000D01*
X14747381Y-10076000D02*
X14737857Y-10056952D01*
X14737857Y-10056952D02*
X14737857Y-9885524D01*
X14918810Y-10076000D02*
X14899762Y-10085524D01*
X14899762Y-10085524D02*
X14861667Y-10085524D01*
X14861667Y-10085524D02*
X14842619Y-10076000D01*
X14842619Y-10076000D02*
X14833096Y-10056952D01*
X14833096Y-10056952D02*
X14833096Y-9980762D01*
X14833096Y-9980762D02*
X14842619Y-9961714D01*
X14842619Y-9961714D02*
X14861667Y-9952190D01*
X14861667Y-9952190D02*
X14899762Y-9952190D01*
X14899762Y-9952190D02*
X14918810Y-9961714D01*
X14918810Y-9961714D02*
X14928334Y-9980762D01*
X14928334Y-9980762D02*
X14928334Y-9999810D01*
X14928334Y-9999810D02*
X14833096Y-10018857D01*
X15004524Y-10076000D02*
X15023572Y-10085524D01*
X15023572Y-10085524D02*
X15061667Y-10085524D01*
X15061667Y-10085524D02*
X15080715Y-10076000D01*
X15080715Y-10076000D02*
X15090238Y-10056952D01*
X15090238Y-10056952D02*
X15090238Y-10047429D01*
X15090238Y-10047429D02*
X15080715Y-10028381D01*
X15080715Y-10028381D02*
X15061667Y-10018857D01*
X15061667Y-10018857D02*
X15033096Y-10018857D01*
X15033096Y-10018857D02*
X15014048Y-10009333D01*
X15014048Y-10009333D02*
X15004524Y-9990286D01*
X15004524Y-9990286D02*
X15004524Y-9980762D01*
X15004524Y-9980762D02*
X15014048Y-9961714D01*
X15014048Y-9961714D02*
X15033096Y-9952190D01*
X15033096Y-9952190D02*
X15061667Y-9952190D01*
X15061667Y-9952190D02*
X15080715Y-9961714D01*
X15156905Y-10161714D02*
X15166429Y-10152190D01*
X15166429Y-10152190D02*
X15185477Y-10123619D01*
X15185477Y-10123619D02*
X15195000Y-10104571D01*
X15195000Y-10104571D02*
X15204524Y-10076000D01*
X15204524Y-10076000D02*
X15214048Y-10028381D01*
X15214048Y-10028381D02*
X15214048Y-9990286D01*
X15214048Y-9990286D02*
X15204524Y-9942667D01*
X15204524Y-9942667D02*
X15195000Y-9914095D01*
X15195000Y-9914095D02*
X15185477Y-9895048D01*
X15185477Y-9895048D02*
X15166429Y-9866476D01*
X15166429Y-9866476D02*
X15156905Y-9856952D01*
M02*
