M48
; DRILL file {KiCad 7.0.1} date Tue Jun 27 15:12:15 2023
; FORMAT={-:-/ absolute / metric / decimal}
; #@! TF.CreationDate,2023-06-27T15:12:15+02:00
; #@! TF.GenerationSoftware,Kicad,Pcbnew,7.0.1
; #@! TF.FileFunction,Plated,1,2,PTH
FMAT,2
METRIC
; #@! TA.AperFunction,Plated,PTH,ComponentDrill
T1C1.000
; #@! TA.AperFunction,Plated,PTH,ComponentDrill
T2C1.300
; #@! TA.AperFunction,Plated,PTH,ComponentDrill
T3C1.500
; #@! TA.AperFunction,Plated,PTH,ComponentDrill
T4C3.200
%
G90
G05
T1
X138.0Y-56.5
X138.0Y-61.5
X138.0Y-106.5
X138.0Y-111.5
X142.9Y-66.368
X142.9Y-71.368
X142.9Y-116.368
X142.9Y-121.368
X143.0Y-46.368
X143.0Y-51.368
X143.0Y-96.368
X143.0Y-101.368
X149.0Y-56.0
X149.0Y-61.0
X149.0Y-106.0
X149.0Y-111.0
X154.0Y-45.368
X154.0Y-50.368
X154.0Y-95.368
X154.0Y-100.368
X154.45Y-66.368
X154.45Y-71.368
X154.45Y-116.368
X154.45Y-121.368
X161.0Y-56.0
X161.0Y-61.0
X161.0Y-106.0
X161.0Y-111.0
X166.0Y-66.368
X166.0Y-71.368
X166.0Y-116.368
X166.0Y-121.368
X168.0Y-46.5
X168.0Y-51.5
X168.0Y-96.5
X168.0Y-101.5
X172.0Y-56.868
X172.0Y-61.868
X172.0Y-106.868
X172.0Y-111.868
T2
X127.46Y-81.3
X127.46Y-131.3
X132.54Y-81.3
X132.54Y-131.3
X176.92Y-81.0
X176.92Y-131.0
X182.0Y-81.0
X182.0Y-131.0
T3
X109.26Y-48.76
X109.26Y-64.317
X109.26Y-98.76
X109.26Y-114.317
X125.5Y-49.444
X125.5Y-65.0
X125.5Y-99.444
X125.5Y-115.0
X182.38Y-66.12
X182.38Y-116.12
X182.944Y-49.5
X182.944Y-99.5
X197.937Y-66.12
X197.937Y-116.12
X198.5Y-49.5
X198.5Y-99.5
T4
X109.0Y-40.0
X109.0Y-81.0
X109.0Y-90.0
X109.0Y-131.0
X199.0Y-40.0
X199.0Y-81.0
X199.0Y-90.0
X199.0Y-131.0
T0
M30
